<svg width="60" height="60" viewBox="0 0 60 60" fill="none" xmlns="http://www.w3.org/2000/svg">
<path d="M31.2019 4.80005C24.6839 4.80005 23.866 4.82855 21.306 4.94505C18.751 5.06205 17.007 5.46655 15.481 6.06005C13.9025 6.67305 12.5635 7.49305 11.2295 8.82755C9.89445 10.1615 9.07445 11.5005 8.45945 13.0785C7.86445 14.605 7.45945 16.3496 7.34445 18.9036C7.22995 21.4636 7.19995 22.282 7.19995 28.8C7.19995 35.318 7.22895 36.1336 7.34495 38.6936C7.46245 41.2486 7.86695 42.9925 8.45995 44.5185C9.07345 46.097 9.89345 47.4361 11.228 48.7701C12.5615 50.1051 13.9005 50.9271 15.478 51.5401C17.005 52.1336 18.7495 52.538 21.304 52.655C23.864 52.7715 24.6815 52.8 31.199 52.8C37.7175 52.8 38.533 52.7715 41.093 52.655C43.648 52.538 45.3939 52.1336 46.9209 51.5401C48.4989 50.9271 49.836 50.1051 51.1695 48.7701C52.5045 47.4361 53.3244 46.0971 53.9394 44.5191C54.5294 42.9926 54.9344 41.248 55.0544 38.694C55.1694 36.134 55.1994 35.318 55.1994 28.8C55.1994 22.282 55.1694 21.464 55.0544 18.904C54.9344 16.349 54.5294 14.605 53.9394 13.079C53.3244 11.5005 52.5045 10.1615 51.1695 8.82755C49.8345 7.49255 48.4994 6.67255 46.9194 6.06005C45.3894 5.46655 43.6444 5.06205 41.0894 4.94505C38.5294 4.82855 37.7144 4.80005 31.1944 4.80005H31.2019ZM29.049 9.12505C29.688 9.12405 30.4009 9.12505 31.2019 9.12505C37.6099 9.12505 38.3694 9.14805 40.8999 9.26305C43.2399 9.37005 44.5099 9.76105 45.3559 10.0895C46.4759 10.5245 47.2744 11.0445 48.1139 11.8845C48.9539 12.7245 49.4739 13.5245 49.9099 14.6445C50.2384 15.4895 50.6299 16.7595 50.7364 19.0995C50.8514 21.6295 50.8764 22.3895 50.8764 28.7945C50.8764 35.1995 50.8514 35.9595 50.7364 38.4895C50.6294 40.8295 50.2384 42.0996 49.9099 42.9446C49.4749 44.0646 48.9539 44.8621 48.1139 45.7016C47.2739 46.5416 46.4764 47.0615 45.3559 47.4965C44.5109 47.8265 43.2399 48.2165 40.8999 48.3235C38.3699 48.4385 37.6099 48.4636 31.2019 48.4636C24.7934 48.4636 24.034 48.4385 21.504 48.3235C19.164 48.2155 17.894 47.8245 17.0475 47.496C15.9275 47.061 15.1275 46.541 14.2875 45.701C13.4475 44.861 12.9275 44.0631 12.4915 42.9426C12.163 42.0976 11.7715 40.8275 11.665 38.4875C11.55 35.9575 11.527 35.1975 11.527 28.7885C11.527 22.3795 11.55 21.6236 11.665 19.0936C11.772 16.7536 12.163 15.4835 12.4915 14.6375C12.9265 13.5175 13.4475 12.7175 14.2875 11.8775C15.1275 11.0375 15.9275 10.5175 17.0475 10.0815C17.8935 9.75155 19.164 9.36155 21.504 9.25405C23.718 9.15405 24.576 9.12405 29.049 9.11905V9.12505ZM44.0129 13.11C42.4229 13.11 41.1329 14.3985 41.1329 15.989C41.1329 17.579 42.4229 18.869 44.0129 18.869C45.6029 18.869 46.893 17.579 46.893 15.989C46.893 14.399 45.6029 13.109 44.0129 13.109V13.11ZM31.2019 16.475C24.3954 16.475 18.877 21.9935 18.877 28.8C18.877 35.6065 24.3954 41.1225 31.2019 41.1225C38.0084 41.1225 43.5249 35.6065 43.5249 28.8C43.5249 21.9935 38.0079 16.475 31.2014 16.475H31.2019ZM31.2019 20.8C35.6199 20.8 39.2019 24.3815 39.2019 28.8C39.2019 33.218 35.6199 36.8 31.2019 36.8C26.7834 36.8 23.202 33.218 23.202 28.8C23.202 24.3815 26.7834 20.8 31.2019 20.8V20.8Z" fill="#435EFE"/>
</svg>
