<svg width="400" height="809" viewBox="0 0 400 809" fill="none" xmlns="http://www.w3.org/2000/svg">
<g clip-path="url(#clip0_234_427)">
<path fill-rule="evenodd" clip-rule="evenodd" d="M393.681 130.227V54.9391C393.681 24.6042 369.123 0 338.845 0H62.4909C32.1959 0 7.65509 24.6042 7.65509 54.9391V129.472C7.65509 129.472 7.63797 129.472 7.62084 129.472C3.4251 129.472 0 132.904 0 137.108V189.61C0 193.814 3.4251 197.245 7.62084 197.245C7.62084 197.245 7.63797 197.245 7.65509 197.245V211.109C7.65509 211.109 7.63797 211.109 7.62084 211.109C3.4251 211.109 0 214.54 0 218.744V271.247C0 275.45 3.4251 278.882 7.62084 278.882C7.62084 278.882 7.63797 278.882 7.65509 278.882V753.362C7.65509 783.697 32.213 808.301 62.4909 808.301H338.845C369.123 808.301 393.681 783.697 393.681 753.362V217.097C397.26 216.479 400.017 213.357 400.017 209.599V137.725C400.017 133.968 397.26 130.845 393.681 130.227ZM379.98 747.975C379.98 773.694 359.156 794.558 333.485 794.558H67.8512C42.1801 794.558 21.3555 773.694 21.3555 747.975V60.3095C21.3555 34.59 42.1801 13.7262 67.8512 13.7262H333.485C359.156 13.7262 379.98 34.59 379.98 60.3095V747.975Z" fill="#110101"/>
<g filter="url(#filter0_d_234_427)">
<path d="M333.485 13.7262H67.8512C42.1723 13.7262 21.3555 34.5822 21.3555 60.3095V747.975C21.3555 773.702 42.1723 794.558 67.8512 794.558H333.485C359.163 794.558 379.98 773.702 379.98 747.975V60.3095C379.98 34.5822 359.163 13.7262 333.485 13.7262Z" fill="#FFFEFE"/>
</g>
<g clip-path="url(#clip1_234_427)">
<path d="M126.393 61.5385C126.279 61.5385 126.166 61.5385 126.052 61.5413C122.326 61.6291 118.857 63.165 116.283 65.8627C113.71 68.5604 112.341 72.0969 112.429 75.8261C112.607 83.4063 118.834 89.4506 126.378 89.4506C126.489 89.4506 126.602 89.4506 126.713 89.4477C134.407 89.2664 140.518 82.8594 140.334 75.1658C140.246 71.4395 138.71 67.971 136.012 65.398C133.399 62.9015 129.995 61.5385 126.393 61.5385ZM126.378 85.4352C123.814 85.4352 121.388 84.4661 119.523 82.6893C117.601 80.8559 116.507 78.3849 116.445 75.7297C116.314 70.2493 120.668 65.687 126.149 65.5567C131.624 65.4206 136.193 69.7789 136.323 75.2593C136.386 77.9145 135.411 80.4337 133.58 82.355C131.749 84.2762 129.275 85.37 126.619 85.4324C126.537 85.4324 126.458 85.4324 126.378 85.4324V85.4352Z" fill="#110101"/>
<path d="M143.137 78.3112H154.578V75.5625H147.529L151.313 71.9609C153.198 70.1643 154.116 68.4754 154.116 66.7922C154.116 65.2648 153.572 64.0406 152.495 63.1537C151.415 62.2384 150.091 61.7765 148.564 61.7765C146.166 61.7765 144.128 62.978 143.077 65.0013L145.611 66.4153C146.268 65.1741 147.277 64.5479 148.612 64.5479C150.069 64.5479 151.083 65.5198 151.083 66.9112C151.083 67.8406 150.392 69.0053 149.032 70.3768L143.134 76.1548V78.3084L143.137 78.3112Z" fill="#110101"/>
<path d="M215.63 89.391H219.541V77.2769C219.541 72.3802 216.597 69.2178 212.042 69.2178C208.984 69.2178 206.34 70.3654 205.147 72.213L204.756 72.8166V69.7959H200.845V89.391H204.756V78.8411C204.756 75.8572 206.66 72.8449 210.92 72.8449C213.87 72.8449 215.63 74.6642 215.63 77.7161V89.391Z" fill="#110101"/>
<path d="M237.96 89.391H241.871V77.2769C241.871 72.3802 238.927 69.2178 234.372 69.2178C231.314 69.2178 228.67 70.3654 227.477 72.213L227.086 72.8166V69.7959H223.175V89.391H227.086V78.8411C227.086 75.8572 228.99 72.8449 233.25 72.8449C236.2 72.8449 237.96 74.6642 237.96 77.7161V89.391Z" fill="#110101"/>
<path d="M254.401 69.249C249.056 69.249 244.706 73.8907 244.706 79.5949C244.706 85.2992 249.056 89.9408 254.401 89.9408C257.589 89.9408 260.65 88.8697 262.637 87.0646L260.724 84.5738C259.675 85.3871 257.663 86.5999 254.965 86.5999C251.439 86.5999 248.965 83.5565 248.693 80.7369L248.67 80.5046H263.445C263.847 77.5235 262.983 74.4631 261.115 72.2896C259.925 70.9039 257.794 69.2519 254.407 69.2519L254.401 69.249ZM259.741 77.4866H248.872L248.906 77.2429C249.251 74.874 251.184 72.4766 254.214 72.4766C257.244 72.4766 259.364 74.8995 259.707 77.2429L259.741 77.4866Z" fill="#110101"/>
<path d="M281.906 66.2141V84.1062C281.906 86.0728 282.413 87.5038 283.411 88.354C284.375 89.1729 285.355 89.649 287.523 89.649C288.028 89.649 288.26 89.6291 288.66 89.5923C288.994 89.5611 289.581 89.4931 289.941 89.4478V86.376C289.827 86.3874 289.697 86.4044 289.572 86.4157C289.422 86.4327 289.283 86.4469 289.21 86.4554C289.014 86.4752 288.785 86.4837 288.532 86.4837C287.611 86.4837 286.894 86.2825 286.407 85.8858C285.905 85.4777 285.653 84.7523 285.653 83.7322V73.5393H289.944V70.3768H285.653V66.2141H281.909H281.906Z" fill="#110101"/>
<path d="M275.889 69.4729C275.81 69.4729 275.728 69.4729 275.648 69.4729C270.088 69.6061 265.67 74.2364 265.803 79.7961C265.865 82.491 266.976 84.9988 268.926 86.8578C270.876 88.7167 273.427 89.7028 276.127 89.6433C277.054 89.6206 277.97 89.4733 278.854 89.2013V85.3134C277.984 85.764 277.017 86.0105 276.042 86.036C274.308 86.0757 272.67 85.4409 271.417 84.2479C270.164 83.0549 269.453 81.4425 269.411 79.714C269.371 77.9854 270.006 76.3418 271.199 75.0893C272.392 73.8368 274.005 73.1256 275.733 73.0831C276.822 73.0576 277.89 73.3041 278.854 73.8028V69.9178C277.893 69.6231 276.898 69.4729 275.889 69.4729Z" fill="#110101"/>
<path d="M188.057 69.2122C187.975 69.2122 187.893 69.2122 187.811 69.215C185.115 69.2774 182.61 70.3882 180.748 72.3378C178.889 74.2874 177.9 76.8462 177.962 79.5383C178.092 85.0187 182.593 89.3854 188.046 89.3854C188.125 89.3854 188.207 89.3854 188.29 89.3826C193.85 89.2494 198.269 84.6191 198.135 79.0594C198.07 76.3645 196.962 73.8595 195.012 71.9977C193.122 70.1955 190.659 69.2094 188.057 69.2094V69.2122ZM188.046 85.7781C186.374 85.7781 184.792 85.1462 183.579 83.9872C182.327 82.7942 181.615 81.1818 181.573 79.4532C181.488 75.8828 184.325 72.9074 187.896 72.8223C191.464 72.7487 194.443 75.5739 194.528 79.1444C194.567 80.8729 193.932 82.5165 192.739 83.769C191.546 85.0215 189.933 85.7328 188.205 85.7753C188.151 85.7753 188.1 85.7753 188.046 85.7753V85.7781Z" fill="#110101"/>
<path d="M172.285 61.5385C172.175 61.5385 172.061 61.5385 171.951 61.5413C168.224 61.6291 164.755 63.165 162.182 65.8627C159.608 68.5604 158.239 72.0969 158.33 75.8261C158.509 83.4063 164.735 89.4506 172.28 89.4506C172.39 89.4506 172.504 89.4506 172.614 89.4477C173.853 89.4194 175.088 89.2211 176.29 88.8583V84.8118C175.1 85.3247 173.833 85.6024 172.523 85.6336C166.937 85.7753 162.278 81.3263 162.145 75.7382C162.012 70.1501 166.453 65.4943 172.042 65.3611C173.515 65.3271 174.944 65.602 176.29 66.1858V62.125C174.992 61.734 173.646 61.5385 172.285 61.5385Z" fill="#110101"/>
</g>
<rect x="35.5029" y="128.994" width="328.994" height="594.083" rx="25" fill="#E7F5FF"/>
<path d="M129.091 177.195V151.741H137.307C139.113 151.741 140.621 152.089 141.831 152.785C143.049 153.473 143.964 154.409 144.578 155.594C145.199 156.779 145.51 158.113 145.51 159.596C145.51 161.079 145.203 162.417 144.59 163.61C143.977 164.795 143.065 165.736 141.856 166.432C140.646 167.12 139.142 167.463 137.344 167.463H130.881V165.375H137.282C138.616 165.375 139.722 165.127 140.6 164.63C141.479 164.124 142.133 163.436 142.564 162.566C143.003 161.696 143.223 160.706 143.223 159.596C143.223 158.486 143.003 157.495 142.564 156.625C142.133 155.755 141.475 155.072 140.588 154.575C139.71 154.077 138.595 153.829 137.245 153.829H131.415V177.195H129.091ZM157.721 177.593C156.072 177.593 154.614 177.175 153.346 176.338C152.087 175.501 151.101 174.345 150.388 172.87C149.676 171.387 149.319 169.676 149.319 167.737C149.319 165.781 149.676 164.062 150.388 162.579C151.101 161.087 152.087 159.927 153.346 159.099C154.614 158.262 156.072 157.843 157.721 157.843C159.37 157.843 160.824 158.262 162.084 159.099C163.343 159.936 164.329 161.096 165.042 162.579C165.763 164.062 166.123 165.781 166.123 167.737C166.123 169.676 165.767 171.387 165.054 172.87C164.342 174.345 163.352 175.501 162.084 176.338C160.824 177.175 159.37 177.593 157.721 177.593ZM157.721 175.567C159.047 175.567 160.17 175.211 161.09 174.498C162.009 173.786 162.705 172.837 163.178 171.652C163.658 170.467 163.898 169.162 163.898 167.737C163.898 166.312 163.658 165.002 163.178 163.809C162.705 162.616 162.009 161.659 161.09 160.938C160.17 160.217 159.047 159.857 157.721 159.857C156.404 159.857 155.281 160.217 154.353 160.938C153.433 161.659 152.733 162.616 152.253 163.809C151.78 165.002 151.544 166.312 151.544 167.737C151.544 169.162 151.78 170.467 152.253 171.652C152.733 172.837 153.433 173.786 154.353 174.498C155.273 175.211 156.396 175.567 157.721 175.567ZM173.192 151.741V177.195H170.98V151.741H173.192ZM181.259 151.741V177.195H179.046V151.741H181.259ZM199.243 169.9V158.104H201.456V177.195H199.243V174.026H199.069C198.622 175.004 197.913 175.82 196.944 176.474C195.975 177.121 194.79 177.444 193.389 177.444C192.171 177.444 191.09 177.179 190.145 176.648C189.201 176.11 188.459 175.323 187.921 174.287C187.382 173.251 187.113 171.979 187.113 170.471V158.104H189.325V170.335C189.325 171.826 189.764 173.027 190.643 173.939C191.521 174.842 192.648 175.294 194.023 175.294C194.885 175.294 195.714 175.087 196.509 174.672C197.304 174.258 197.959 173.653 198.473 172.858C198.987 172.054 199.243 171.068 199.243 169.9ZM212.645 177.63C211.493 177.63 210.441 177.407 209.488 176.959C208.535 176.503 207.777 175.849 207.213 174.995C206.65 174.134 206.368 173.09 206.368 171.863C206.368 170.919 206.546 170.123 206.903 169.477C207.259 168.831 207.764 168.3 208.419 167.886C209.074 167.472 209.848 167.144 210.743 166.904C211.638 166.664 212.624 166.477 213.701 166.345C214.77 166.212 215.673 166.096 216.411 165.997C217.157 165.897 217.724 165.74 218.114 165.525C218.503 165.309 218.698 164.961 218.698 164.48V164.033C218.698 162.732 218.308 161.709 217.53 160.963C216.759 160.209 215.649 159.832 214.199 159.832C212.823 159.832 211.7 160.134 210.83 160.739C209.969 161.344 209.364 162.057 209.016 162.877L206.915 162.119C207.346 161.075 207.943 160.242 208.705 159.621C209.467 158.991 210.321 158.539 211.265 158.266C212.21 157.984 213.167 157.843 214.136 157.843C214.866 157.843 215.624 157.939 216.411 158.129C217.206 158.32 217.944 158.651 218.623 159.124C219.303 159.588 219.854 160.238 220.276 161.075C220.699 161.904 220.91 162.956 220.91 164.232V177.195H218.698V174.175H218.561C218.296 174.739 217.902 175.285 217.38 175.816C216.858 176.346 216.204 176.781 215.417 177.121C214.629 177.46 213.706 177.63 212.645 177.63ZM212.943 175.604C214.12 175.604 215.139 175.343 216.001 174.821C216.862 174.299 217.525 173.607 217.989 172.746C218.462 171.876 218.698 170.919 218.698 169.875V167.115C218.532 167.273 218.255 167.414 217.865 167.538C217.484 167.662 217.041 167.774 216.535 167.874C216.038 167.965 215.541 168.043 215.044 168.11C214.547 168.176 214.099 168.234 213.701 168.284C212.624 168.416 211.704 168.623 210.942 168.905C210.18 169.187 209.596 169.576 209.19 170.074C208.784 170.562 208.581 171.192 208.581 171.963C208.581 173.123 208.995 174.022 209.824 174.66C210.652 175.29 211.692 175.604 212.943 175.604ZM229.008 165.263V177.195H226.795V158.104H228.946V161.1H229.144C229.592 160.122 230.288 159.339 231.232 158.751C232.185 158.154 233.362 157.856 234.762 157.856C236.047 157.856 237.174 158.125 238.143 158.664C239.121 159.194 239.879 159.977 240.417 161.013C240.964 162.049 241.238 163.32 241.238 164.828V177.195H239.025V164.965C239.025 163.399 238.586 162.16 237.708 161.249C236.838 160.337 235.67 159.882 234.203 159.882C233.2 159.882 232.31 160.097 231.531 160.528C230.752 160.959 230.135 161.58 229.679 162.392C229.231 163.196 229.008 164.153 229.008 165.263ZM254.583 158.104V160.031H245.473V158.104H254.583ZM248.319 153.531H250.544V172.211C250.544 173.007 250.681 173.632 250.954 174.088C251.228 174.536 251.584 174.855 252.023 175.045C252.462 175.227 252.93 175.319 253.427 175.319C253.718 175.319 253.966 175.302 254.173 175.269C254.38 175.227 254.563 175.186 254.72 175.145L255.192 177.146C254.977 177.228 254.712 177.303 254.397 177.369C254.082 177.444 253.693 177.481 253.229 177.481C252.417 177.481 251.634 177.303 250.88 176.947C250.134 176.59 249.521 176.06 249.04 175.356C248.559 174.652 248.319 173.777 248.319 172.733V153.531ZM272.093 162.293L270.067 162.865C269.868 162.293 269.586 161.775 269.222 161.311C268.857 160.847 268.381 160.478 267.792 160.205C267.212 159.931 266.491 159.795 265.63 159.795C264.337 159.795 263.276 160.101 262.448 160.714C261.619 161.328 261.205 162.119 261.205 163.088C261.205 163.909 261.487 164.576 262.05 165.089C262.622 165.595 263.5 165.997 264.685 166.295L267.569 167.004C269.168 167.393 270.365 168.01 271.161 168.855C271.964 169.701 272.366 170.761 272.366 172.037C272.366 173.114 272.068 174.071 271.471 174.908C270.875 175.745 270.042 176.404 268.973 176.885C267.912 177.357 266.682 177.593 265.282 177.593C263.417 177.593 261.88 177.175 260.67 176.338C259.461 175.493 258.686 174.275 258.346 172.684L260.472 172.162C260.745 173.297 261.28 174.154 262.075 174.734C262.879 175.314 263.935 175.604 265.244 175.604C266.711 175.604 267.883 175.277 268.762 174.623C269.64 173.96 270.079 173.131 270.079 172.137C270.079 171.366 269.822 170.72 269.309 170.198C268.795 169.667 268.016 169.278 266.972 169.029L263.852 168.284C262.195 167.886 260.969 167.256 260.173 166.395C259.378 165.533 258.98 164.464 258.98 163.188C258.98 162.136 259.266 161.212 259.838 160.416C260.409 159.612 261.197 158.983 262.199 158.527C263.202 158.071 264.345 157.843 265.63 157.843C267.378 157.843 268.774 158.241 269.818 159.037C270.871 159.824 271.629 160.909 272.093 162.293ZM139.162 212.593C137.596 212.593 136.224 212.179 135.048 211.35C133.871 210.522 132.951 209.366 132.288 207.882C131.634 206.399 131.307 204.672 131.307 202.7C131.307 200.736 131.634 199.016 132.288 197.542C132.951 196.058 133.875 194.907 135.06 194.086C136.245 193.258 137.625 192.843 139.199 192.843C140.359 192.843 141.324 193.051 142.095 193.465C142.866 193.871 143.483 194.376 143.947 194.981C144.411 195.586 144.771 196.174 145.028 196.746H145.227V186.741H147.452V212.195H145.289V208.653H145.028C144.771 209.233 144.407 209.83 143.934 210.443C143.462 211.048 142.837 211.557 142.058 211.972C141.287 212.386 140.322 212.593 139.162 212.593ZM139.423 210.567C140.657 210.567 141.71 210.232 142.58 209.56C143.45 208.881 144.113 207.949 144.568 206.764C145.032 205.571 145.264 204.203 145.264 202.662C145.264 201.138 145.036 199.791 144.581 198.623C144.125 197.446 143.462 196.527 142.592 195.864C141.722 195.192 140.666 194.857 139.423 194.857C138.147 194.857 137.069 195.205 136.191 195.901C135.321 196.589 134.658 197.521 134.203 198.697C133.755 199.874 133.531 201.196 133.531 202.662C133.531 204.145 133.759 205.484 134.215 206.677C134.671 207.87 135.334 208.819 136.204 209.523C137.082 210.219 138.155 210.567 139.423 210.567ZM159.085 212.63C157.934 212.63 156.881 212.407 155.928 211.959C154.975 211.503 154.217 210.849 153.654 209.995C153.09 209.134 152.809 208.09 152.809 206.863C152.809 205.919 152.987 205.123 153.343 204.477C153.699 203.831 154.205 203.3 154.859 202.886C155.514 202.472 156.289 202.144 157.184 201.904C158.079 201.664 159.065 201.477 160.142 201.345C161.211 201.212 162.114 201.096 162.851 200.997C163.597 200.897 164.165 200.74 164.554 200.525C164.944 200.309 165.138 199.961 165.138 199.48V199.033C165.138 197.732 164.749 196.709 163.97 195.963C163.199 195.209 162.089 194.832 160.639 194.832C159.263 194.832 158.141 195.134 157.271 195.739C156.409 196.344 155.804 197.057 155.456 197.877L153.356 197.119C153.786 196.075 154.383 195.242 155.145 194.621C155.908 193.991 156.761 193.539 157.706 193.266C158.65 192.984 159.607 192.843 160.577 192.843C161.306 192.843 162.064 192.939 162.851 193.129C163.647 193.32 164.384 193.651 165.064 194.124C165.743 194.588 166.294 195.238 166.717 196.075C167.139 196.904 167.351 197.956 167.351 199.232V212.195H165.138V209.175H165.002C164.736 209.739 164.343 210.285 163.821 210.816C163.299 211.346 162.644 211.781 161.857 212.121C161.07 212.46 160.146 212.63 159.085 212.63ZM159.384 210.604C160.56 210.604 161.579 210.343 162.441 209.821C163.303 209.299 163.966 208.607 164.43 207.746C164.902 206.876 165.138 205.919 165.138 204.875V202.115C164.973 202.273 164.695 202.414 164.306 202.538C163.924 202.662 163.481 202.774 162.976 202.874C162.478 202.965 161.981 203.043 161.484 203.11C160.987 203.176 160.54 203.234 160.142 203.284C159.065 203.416 158.145 203.623 157.383 203.905C156.62 204.187 156.036 204.576 155.63 205.074C155.224 205.562 155.021 206.192 155.021 206.963C155.021 208.123 155.435 209.022 156.264 209.66C157.093 210.29 158.132 210.604 159.384 210.604ZM175.448 200.263V212.195H173.236V193.104H175.386V196.1H175.585C176.032 195.122 176.728 194.339 177.673 193.751C178.626 193.154 179.802 192.856 181.203 192.856C182.487 192.856 183.614 193.125 184.583 193.664C185.561 194.194 186.319 194.977 186.858 196.013C187.405 197.049 187.678 198.32 187.678 199.828V212.195H185.466V199.965C185.466 198.399 185.027 197.16 184.148 196.249C183.278 195.337 182.11 194.882 180.643 194.882C179.641 194.882 178.75 195.097 177.971 195.528C177.192 195.959 176.575 196.58 176.119 197.392C175.672 198.196 175.448 199.153 175.448 200.263ZM206.331 197.293L204.305 197.865C204.106 197.293 203.824 196.775 203.46 196.311C203.095 195.847 202.619 195.478 202.031 195.205C201.451 194.931 200.73 194.795 199.868 194.795C198.575 194.795 197.515 195.101 196.686 195.714C195.858 196.328 195.443 197.119 195.443 198.088C195.443 198.909 195.725 199.576 196.288 200.089C196.86 200.595 197.738 200.997 198.923 201.295L201.807 202.004C203.406 202.393 204.603 203.01 205.399 203.855C206.203 204.701 206.604 205.761 206.604 207.037C206.604 208.114 206.306 209.071 205.71 209.908C205.113 210.745 204.28 211.404 203.211 211.885C202.151 212.357 200.92 212.593 199.52 212.593C197.656 212.593 196.119 212.175 194.909 211.338C193.699 210.493 192.924 209.275 192.585 207.684L194.71 207.162C194.983 208.297 195.518 209.154 196.313 209.734C197.117 210.314 198.173 210.604 199.483 210.604C200.949 210.604 202.122 210.277 203 209.623C203.878 208.96 204.318 208.131 204.318 207.137C204.318 206.366 204.061 205.72 203.547 205.198C203.033 204.667 202.254 204.278 201.21 204.029L198.091 203.284C196.433 202.886 195.207 202.256 194.412 201.395C193.616 200.533 193.218 199.464 193.218 198.188C193.218 197.136 193.504 196.212 194.076 195.416C194.648 194.612 195.435 193.983 196.438 193.527C197.44 193.071 198.584 192.843 199.868 192.843C201.616 192.843 203.012 193.241 204.056 194.037C205.109 194.824 205.867 195.909 206.331 197.293ZM223.505 186.741V212.195H221.292V186.741H223.505ZM231.372 186.741V188.978C231.372 189.657 231.248 190.382 230.999 191.153C230.759 191.915 230.403 192.657 229.931 193.378C229.467 194.09 228.903 194.712 228.24 195.242L227.035 194.186C227.656 193.457 228.182 192.649 228.613 191.762C229.044 190.867 229.259 189.952 229.259 189.015V186.741H231.372ZM238.827 212.63C237.675 212.63 236.622 212.407 235.67 211.959C234.717 211.503 233.959 210.849 233.395 209.995C232.832 209.134 232.55 208.09 232.55 206.863C232.55 205.919 232.728 205.123 233.084 204.477C233.441 203.831 233.946 203.3 234.601 202.886C235.255 202.472 236.03 202.144 236.925 201.904C237.82 201.664 238.806 201.477 239.883 201.345C240.952 201.212 241.855 201.096 242.593 200.997C243.338 200.897 243.906 200.74 244.295 200.525C244.685 200.309 244.879 199.961 244.879 199.48V199.033C244.879 197.732 244.49 196.709 243.711 195.963C242.941 195.209 241.83 194.832 240.38 194.832C239.005 194.832 237.882 195.134 237.012 195.739C236.15 196.344 235.545 197.057 235.197 197.877L233.097 197.119C233.528 196.075 234.124 195.242 234.887 194.621C235.649 193.991 236.502 193.539 237.447 193.266C238.392 192.984 239.349 192.843 240.318 192.843C241.047 192.843 241.805 192.939 242.593 193.129C243.388 193.32 244.125 193.651 244.805 194.124C245.484 194.588 246.035 195.238 246.458 196.075C246.881 196.904 247.092 197.956 247.092 199.232V212.195H244.879V209.175H244.743C244.478 209.739 244.084 210.285 243.562 210.816C243.04 211.346 242.385 211.781 241.598 212.121C240.811 212.46 239.887 212.63 238.827 212.63ZM239.125 210.604C240.301 210.604 241.321 210.343 242.182 209.821C243.044 209.299 243.707 208.607 244.171 207.746C244.643 206.876 244.879 205.919 244.879 204.875V202.115C244.714 202.273 244.436 202.414 244.047 202.538C243.666 202.662 243.222 202.774 242.717 202.874C242.22 202.965 241.723 203.043 241.225 203.11C240.728 203.176 240.281 203.234 239.883 203.284C238.806 203.416 237.886 203.623 237.124 203.905C236.361 204.187 235.777 204.576 235.371 205.074C234.965 205.562 234.762 206.192 234.762 206.963C234.762 208.123 235.177 209.022 236.005 209.66C236.834 210.29 237.874 210.604 239.125 210.604ZM253.002 212.195V193.104H255.227V212.195H253.002ZM254.133 189.823C253.677 189.823 253.288 189.67 252.965 189.363C252.641 189.048 252.48 188.671 252.48 188.232C252.48 187.793 252.641 187.42 252.965 187.114C253.288 186.799 253.677 186.641 254.133 186.641C254.589 186.641 254.978 186.799 255.301 187.114C255.624 187.42 255.786 187.793 255.786 188.232C255.786 188.671 255.624 189.048 255.301 189.363C254.978 189.67 254.589 189.823 254.133 189.823ZM261.078 212.195V193.104H263.228V196.038H263.389C263.77 195.076 264.433 194.302 265.378 193.713C266.331 193.117 267.408 192.819 268.609 192.819C268.792 192.819 268.995 192.823 269.219 192.831C269.442 192.839 269.629 192.848 269.778 192.856V195.105C269.678 195.089 269.504 195.064 269.256 195.031C269.007 194.998 268.738 194.981 268.448 194.981C267.454 194.981 266.567 195.192 265.788 195.615C265.018 196.029 264.408 196.605 263.961 197.343C263.514 198.08 263.29 198.921 263.29 199.866V212.195H261.078Z" fill="#110101"/>
<path d="M177.54 381.094C176.488 381.085 175.46 380.874 174.458 380.46C173.455 380.037 172.552 379.362 171.748 378.434C170.945 377.497 170.307 376.263 169.834 374.73C169.362 373.197 169.126 371.312 169.126 369.075C169.126 367.003 169.308 365.106 169.673 363.382C170.037 361.659 170.584 360.167 171.313 358.908C172.042 357.648 172.954 356.675 174.048 355.987C175.141 355.291 176.422 354.943 177.888 354.943C179.264 354.943 180.478 355.229 181.53 355.801C182.582 356.364 183.436 357.151 184.09 358.162C184.745 359.173 185.155 360.337 185.321 361.655H183.034C182.802 360.312 182.251 359.206 181.381 358.336C180.511 357.466 179.347 357.031 177.888 357.031C175.8 357.031 174.184 358.001 173.041 359.939C171.897 361.87 171.322 364.613 171.313 368.167H171.475C171.881 367.413 172.403 366.763 173.041 366.216C173.687 365.661 174.421 365.23 175.241 364.924C176.061 364.609 176.923 364.451 177.826 364.451C179.243 364.451 180.54 364.812 181.716 365.533C182.893 366.245 183.833 367.227 184.538 368.478C185.242 369.721 185.594 371.142 185.594 372.741C185.594 374.258 185.259 375.654 184.587 376.93C183.925 378.206 182.988 379.221 181.779 379.975C180.577 380.729 179.164 381.102 177.54 381.094ZM177.54 379.006C178.651 379.006 179.641 378.724 180.511 378.16C181.389 377.597 182.081 376.843 182.586 375.898C183.092 374.945 183.345 373.893 183.345 372.741C183.345 371.59 183.092 370.546 182.586 369.609C182.081 368.673 181.389 367.927 180.511 367.372C179.641 366.817 178.651 366.539 177.54 366.539C176.695 366.539 175.908 366.713 175.179 367.061C174.45 367.401 173.816 367.869 173.277 368.466C172.747 369.054 172.341 369.729 172.059 370.492C171.786 371.254 171.682 372.054 171.748 372.89C171.839 374.059 172.142 375.107 172.656 376.035C173.178 376.955 173.857 377.68 174.694 378.21C175.539 378.74 176.488 379.006 177.54 379.006ZM198.297 381.094C196.88 381.094 195.612 380.808 194.493 380.236C193.383 379.656 192.496 378.861 191.834 377.85C191.179 376.839 190.831 375.683 190.79 374.382H193.039C193.114 375.733 193.644 376.843 194.63 377.713C195.616 378.575 196.838 379.006 198.297 379.006C199.432 379.006 200.443 378.736 201.329 378.198C202.216 377.651 202.908 376.905 203.405 375.96C203.91 375.008 204.163 373.935 204.163 372.741C204.155 371.498 203.886 370.405 203.355 369.46C202.825 368.507 202.104 367.761 201.193 367.223C200.289 366.684 199.274 366.415 198.147 366.415C197.294 366.407 196.457 366.548 195.637 366.838C194.817 367.128 194.133 367.5 193.586 367.956L191.262 367.658L192.791 355.291H205.369V357.379H194.742L193.723 365.893H193.847C194.41 365.421 195.094 365.035 195.898 364.737C196.71 364.439 197.567 364.29 198.471 364.29C199.97 364.29 201.317 364.65 202.51 365.371C203.712 366.092 204.66 367.086 205.356 368.354C206.061 369.613 206.413 371.063 206.413 372.704C206.413 374.312 206.061 375.749 205.356 377.017C204.66 378.276 203.699 379.271 202.473 380C201.255 380.729 199.863 381.094 198.297 381.094ZM224.578 376.023V374.867C224.578 373.914 224.768 373.056 225.149 372.294C225.531 371.523 226.073 370.914 226.778 370.467C227.482 370.019 228.319 369.796 229.288 369.796C230.266 369.796 231.103 370.019 231.799 370.467C232.495 370.914 233.029 371.523 233.402 372.294C233.775 373.056 233.962 373.914 233.962 374.867V376.023C233.962 376.975 233.771 377.833 233.39 378.595C233.017 379.358 232.483 379.967 231.787 380.422C231.09 380.87 230.258 381.094 229.288 381.094C228.302 381.094 227.457 380.87 226.753 380.422C226.057 379.967 225.518 379.358 225.137 378.595C224.764 377.833 224.578 376.975 224.578 376.023ZM226.529 374.867V376.023C226.529 376.959 226.757 377.759 227.213 378.421C227.677 379.076 228.369 379.403 229.288 379.403C230.183 379.403 230.858 379.076 231.314 378.421C231.77 377.759 231.998 376.959 231.998 376.023V374.867C231.998 373.93 231.774 373.135 231.327 372.48C230.879 371.817 230.2 371.486 229.288 371.486C228.385 371.486 227.697 371.817 227.225 372.48C226.761 373.135 226.529 373.93 226.529 374.867ZM211.751 361.17V360.014C211.751 359.061 211.942 358.204 212.323 357.441C212.704 356.679 213.247 356.074 213.951 355.627C214.655 355.171 215.492 354.943 216.462 354.943C217.439 354.943 218.276 355.171 218.972 355.627C219.668 356.074 220.203 356.679 220.576 357.441C220.948 358.204 221.135 359.061 221.135 360.014V361.17C221.135 362.123 220.944 362.985 220.563 363.755C220.19 364.518 219.656 365.122 218.96 365.57C218.264 366.017 217.431 366.241 216.462 366.241C215.476 366.241 214.63 366.017 213.926 365.57C213.23 365.122 212.691 364.518 212.31 363.755C211.937 362.985 211.751 362.123 211.751 361.17ZM213.702 360.014V361.17C213.702 362.106 213.93 362.906 214.386 363.569C214.85 364.223 215.542 364.551 216.462 364.551C217.356 364.551 218.032 364.223 218.487 363.569C218.943 362.906 219.171 362.106 219.171 361.17V360.014C219.171 359.078 218.947 358.282 218.5 357.628C218.052 356.965 217.373 356.633 216.462 356.633C215.558 356.633 214.871 356.965 214.398 357.628C213.934 358.282 213.702 359.078 213.702 360.014ZM212.894 380.746L230.382 355.291H232.582L215.094 380.746H212.894Z" fill="#435EFE"/>
<path d="M137.6 448.999C123.573 437.462 113.009 422.271 107.076 405.105C101.144 387.939 100.074 369.467 103.985 351.731C107.896 333.995 116.635 317.686 129.237 304.607C141.839 291.527 157.812 282.188 175.39 277.621C192.969 273.053 211.468 273.436 228.843 278.726C246.217 284.017 261.791 294.009 273.841 307.598C285.891 321.187 293.948 337.844 297.122 355.726C300.296 373.609 298.463 392.021 291.826 408.927L262.251 397.316C266.746 385.864 267.988 373.392 265.838 361.279C263.688 349.166 258.23 337.883 250.068 328.678C241.905 319.474 231.357 312.705 219.588 309.122C207.819 305.538 195.288 305.279 183.381 308.373C171.473 311.467 160.654 317.793 152.118 326.652C143.582 335.512 137.662 346.559 135.013 358.573C132.364 370.587 133.088 383.099 137.107 394.727C141.125 406.355 148.281 416.645 157.783 424.459L137.6 448.999Z" fill="#9E9EA3"/>
<path d="M206.064 290.554C206.692 281.803 214.35 275.09 222.887 277.115C234.029 279.758 244.666 284.334 254.299 290.675C268.374 299.939 279.837 312.659 287.591 327.619C295.345 342.579 299.131 359.279 298.586 376.12C298.042 392.961 293.185 409.381 284.481 423.809C275.777 438.237 263.517 450.191 248.872 458.526C234.228 466.861 217.69 471.3 200.841 471.417C183.991 471.534 167.393 467.326 152.634 459.195C142.533 453.63 133.525 446.354 125.99 437.73C120.218 431.122 122.585 421.218 130.034 416.582V416.582C137.483 411.945 147.173 414.408 153.436 420.553C157.748 424.784 162.632 428.427 167.966 431.365C177.963 436.873 189.206 439.724 200.62 439.644C212.033 439.565 223.236 436.558 233.155 430.912C243.074 425.266 251.379 417.169 257.275 407.396C263.171 397.623 266.461 386.501 266.83 375.093C267.199 363.685 264.634 352.374 259.382 342.24C254.13 332.107 246.365 323.49 236.831 317.215C231.744 313.867 226.244 311.245 220.49 309.404C212.133 306.729 205.437 299.305 206.064 290.554V290.554Z" fill="#435EFE"/>
<path d="M117.16 518.935C117.16 510.765 123.783 504.142 131.953 504.142V504.142C140.123 504.142 146.746 510.765 146.746 518.935V637.87H117.16V518.935Z" fill="#435EFE"/>
<path d="M182.249 614.201C182.249 606.358 188.607 600 196.45 600V600C204.293 600 210.651 606.358 210.651 614.201V637.87H182.249V614.201Z" fill="#36BA7B"/>
<path d="M257.988 595.858C257.988 587.688 264.611 581.065 272.781 581.065V581.065C280.951 581.065 287.574 587.688 287.574 595.858V637.87H257.988V595.858Z" fill="#F0360D"/>
<path d="M89.6816 663.691C88.9145 663.691 88.254 663.51 87.7001 663.148C87.1461 662.786 86.7199 662.287 86.4216 661.651C86.1233 661.015 85.9742 660.289 85.9742 659.472C85.9742 658.641 86.1269 657.908 86.4323 657.273C86.7412 656.633 87.1709 656.134 87.7214 655.776C88.2753 655.414 88.9216 655.232 89.6603 655.232C90.2356 655.232 90.754 655.339 91.2157 655.552C91.6773 655.765 92.0555 656.063 92.3503 656.447C92.645 656.83 92.8279 657.278 92.8989 657.789H91.6418C91.5459 657.416 91.3329 657.086 91.0026 656.798C90.6759 656.507 90.2356 656.362 89.6816 656.362C89.1915 656.362 88.7618 656.49 88.3925 656.745C88.0268 656.997 87.7409 657.354 87.5349 657.816C87.3325 658.274 87.2313 658.812 87.2313 659.43C87.2313 660.062 87.3307 660.612 87.5296 661.081C87.732 661.55 88.0161 661.914 88.3819 662.173C88.7512 662.432 89.1844 662.562 89.6816 662.562C90.0083 662.562 90.3048 662.505 90.5711 662.391C90.8375 662.278 91.063 662.115 91.2476 661.901C91.4323 661.688 91.5637 661.433 91.6418 661.134H92.8989C92.8279 661.617 92.6521 662.052 92.3716 662.439C92.0946 662.823 91.727 663.128 91.2689 663.356C90.8144 663.579 90.2853 663.691 89.6816 663.691ZM98.0605 663.691C97.3219 663.691 96.6738 663.515 96.1162 663.164C95.5623 662.812 95.129 662.32 94.8165 661.688C94.5076 661.056 94.3531 660.318 94.3531 659.472C94.3531 658.62 94.5076 657.876 94.8165 657.241C95.129 656.605 95.5623 656.111 96.1162 655.76C96.6738 655.408 97.3219 655.232 98.0605 655.232C98.7991 655.232 99.4454 655.408 99.9994 655.76C100.557 656.111 100.99 656.605 101.299 657.241C101.612 657.876 101.768 658.62 101.768 659.472C101.768 660.318 101.612 661.056 101.299 661.688C100.99 662.32 100.557 662.812 99.9994 663.164C99.4454 663.515 98.7991 663.691 98.0605 663.691ZM98.0605 662.562C98.6216 662.562 99.0832 662.418 99.4454 662.13C99.8077 661.843 100.076 661.465 100.25 660.996C100.424 660.527 100.511 660.019 100.511 659.472C100.511 658.926 100.424 658.416 100.25 657.944C100.076 657.471 99.8077 657.09 99.4454 656.798C99.0832 656.507 98.6216 656.362 98.0605 656.362C97.4994 656.362 97.0378 656.507 96.6755 656.798C96.3133 657.09 96.0452 657.471 95.8712 657.944C95.6972 658.416 95.6102 658.926 95.6102 659.472C95.6102 660.019 95.6972 660.527 95.8712 660.996C96.0452 661.465 96.3133 661.843 96.6755 662.13C97.0378 662.418 97.4994 662.562 98.0605 662.562ZM103.666 663.521V662.562L107.266 658.62C107.689 658.159 108.037 657.757 108.31 657.416C108.584 657.072 108.786 656.749 108.918 656.447C109.053 656.141 109.12 655.822 109.12 655.488C109.12 655.105 109.028 654.773 108.843 654.492C108.662 654.211 108.413 653.995 108.097 653.842C107.781 653.689 107.426 653.613 107.032 653.613C106.613 653.613 106.247 653.7 105.935 653.874C105.626 654.045 105.386 654.284 105.216 654.593C105.049 654.902 104.965 655.264 104.965 655.68H103.708C103.708 655.041 103.856 654.48 104.15 653.997C104.445 653.514 104.846 653.137 105.354 652.867C105.865 652.597 106.439 652.463 107.075 652.463C107.714 652.463 108.28 652.597 108.774 652.867C109.267 653.137 109.655 653.501 109.935 653.959C110.216 654.417 110.356 654.927 110.356 655.488C110.356 655.889 110.283 656.282 110.137 656.665C109.995 657.045 109.747 657.47 109.392 657.938C109.04 658.404 108.552 658.972 107.927 659.643L105.477 662.264V662.349H110.548V663.521H103.666Z" fill="#110101"/>
<path d="M187.614 656.021H186.293C186.215 655.641 186.078 655.307 185.883 655.019C185.691 654.732 185.457 654.49 185.18 654.295C184.906 654.096 184.603 653.947 184.269 653.847C183.935 653.748 183.587 653.698 183.225 653.698C182.564 653.698 181.966 653.865 181.43 654.199C180.897 654.533 180.473 655.025 180.157 655.675C179.844 656.324 179.688 657.122 179.688 658.066C179.688 659.011 179.844 659.808 180.157 660.458C180.473 661.108 180.897 661.6 181.43 661.933C181.966 662.267 182.564 662.434 183.225 662.434C183.587 662.434 183.935 662.384 184.269 662.285C184.603 662.186 184.906 662.038 185.18 661.843C185.457 661.644 185.691 661.401 185.883 661.113C186.078 660.822 186.215 660.488 186.293 660.112H187.614C187.515 660.669 187.334 661.168 187.071 661.608C186.808 662.049 186.481 662.423 186.091 662.732C185.7 663.038 185.262 663.27 184.775 663.43C184.292 663.59 183.775 663.67 183.225 663.67C182.295 663.67 181.467 663.443 180.743 662.988C180.018 662.534 179.448 661.887 179.033 661.049C178.617 660.211 178.41 659.217 178.41 658.066C178.41 656.916 178.617 655.921 179.033 655.083C179.448 654.245 180.018 653.599 180.743 653.144C181.467 652.69 182.295 652.463 183.225 652.463C183.775 652.463 184.292 652.542 184.775 652.702C185.262 652.862 185.7 653.096 186.091 653.405C186.481 653.711 186.808 654.084 187.071 654.524C187.334 654.961 187.515 655.46 187.614 656.021ZM192.902 663.691C192.164 663.691 191.516 663.515 190.958 663.164C190.404 662.812 189.971 662.32 189.658 661.688C189.349 661.056 189.195 660.318 189.195 659.472C189.195 658.62 189.349 657.876 189.658 657.241C189.971 656.605 190.404 656.111 190.958 655.76C191.516 655.408 192.164 655.232 192.902 655.232C193.641 655.232 194.287 655.408 194.841 655.76C195.399 656.111 195.832 656.605 196.141 657.241C196.453 657.876 196.61 658.62 196.61 659.472C196.61 660.318 196.453 661.056 196.141 661.688C195.832 662.32 195.399 662.812 194.841 663.164C194.287 663.515 193.641 663.691 192.902 663.691ZM192.902 662.562C193.463 662.562 193.925 662.418 194.287 662.13C194.649 661.843 194.918 661.465 195.092 660.996C195.266 660.527 195.353 660.019 195.353 659.472C195.353 658.926 195.266 658.416 195.092 657.944C194.918 657.471 194.649 657.09 194.287 656.798C193.925 656.507 193.463 656.362 192.902 656.362C192.341 656.362 191.88 656.507 191.517 656.798C191.155 657.09 190.887 657.471 190.713 657.944C190.539 658.416 190.452 658.926 190.452 659.472C190.452 660.019 190.539 660.527 190.713 660.996C190.887 661.465 191.155 661.843 191.517 662.13C191.88 662.418 192.341 662.562 192.902 662.562ZM204.926 655.339L201.9 663.521H200.622L197.596 655.339H198.96L201.219 661.859H201.304L203.562 655.339H204.926Z" fill="#110101"/>
<path d="M238.953 663.521V652.612H242.639C243.495 652.612 244.195 652.766 244.738 653.075C245.285 653.38 245.69 653.794 245.953 654.316C246.215 654.838 246.347 655.421 246.347 656.063C246.347 656.706 246.215 657.29 245.953 657.816C245.693 658.341 245.292 658.76 244.749 659.073C244.205 659.382 243.509 659.536 242.661 659.536H240.019V658.365H242.618C243.204 658.365 243.674 658.263 244.03 658.061C244.385 657.858 244.642 657.585 244.802 657.241C244.965 656.893 245.047 656.5 245.047 656.063C245.047 655.627 244.965 655.236 244.802 654.891C244.642 654.547 244.383 654.277 244.024 654.082C243.666 653.883 243.19 653.784 242.597 653.784H240.274V663.521H238.953ZM250.712 663.713C250.193 663.713 249.723 663.615 249.3 663.42C248.878 663.221 248.542 662.935 248.294 662.562C248.045 662.186 247.921 661.731 247.921 661.198C247.921 660.73 248.013 660.35 248.198 660.058C248.382 659.764 248.629 659.533 248.938 659.366C249.247 659.199 249.588 659.075 249.961 658.993C250.337 658.908 250.715 658.84 251.095 658.791C251.593 658.727 251.996 658.679 252.305 658.647C252.617 658.611 252.844 658.553 252.986 658.471C253.132 658.389 253.205 658.247 253.205 658.045V658.002C253.205 657.477 253.061 657.068 252.773 656.777C252.489 656.486 252.058 656.34 251.479 656.34C250.879 656.34 250.408 656.472 250.067 656.735C249.726 656.997 249.487 657.278 249.348 657.576L248.155 657.15C248.368 656.653 248.652 656.266 249.007 655.989C249.366 655.708 249.757 655.513 250.179 655.403C250.605 655.289 251.024 655.232 251.436 655.232C251.699 655.232 252.001 655.264 252.342 655.328C252.686 655.389 253.018 655.515 253.338 655.706C253.661 655.898 253.929 656.188 254.142 656.575C254.355 656.962 254.462 657.48 254.462 658.13V663.521H253.205V662.413H253.141C253.056 662.59 252.914 662.78 252.715 662.983C252.516 663.185 252.251 663.357 251.921 663.499C251.591 663.641 251.188 663.713 250.712 663.713ZM250.904 662.583C251.401 662.583 251.82 662.486 252.161 662.29C252.505 662.095 252.764 661.843 252.938 661.534C253.116 661.225 253.205 660.9 253.205 660.559V659.409C253.152 659.472 253.034 659.531 252.853 659.584C252.676 659.634 252.47 659.678 252.235 659.717C252.005 659.753 251.779 659.785 251.559 659.813C251.342 659.838 251.166 659.86 251.032 659.877C250.705 659.92 250.399 659.989 250.115 660.085C249.835 660.177 249.608 660.318 249.434 660.506C249.263 660.69 249.178 660.943 249.178 661.262C249.178 661.699 249.339 662.029 249.663 662.253C249.989 662.473 250.403 662.583 250.904 662.583ZM256.756 663.521V655.339H257.971V656.575H258.056C258.205 656.17 258.475 655.841 258.866 655.589C259.256 655.337 259.697 655.211 260.187 655.211C260.279 655.211 260.395 655.213 260.533 655.216C260.672 655.22 260.776 655.225 260.847 655.232V656.511C260.805 656.5 260.707 656.484 260.554 656.463C260.405 656.438 260.247 656.426 260.08 656.426C259.683 656.426 259.327 656.509 259.015 656.676C258.706 656.839 258.461 657.067 258.28 657.358C258.102 657.645 258.013 657.974 258.013 658.343V663.521H256.756ZM266.408 655.339V656.404H262.168V655.339H266.408ZM263.404 653.379H264.661V661.177C264.661 661.532 264.713 661.798 264.816 661.976C264.922 662.15 265.057 662.267 265.221 662.328C265.387 662.384 265.563 662.413 265.748 662.413C265.886 662.413 266 662.406 266.089 662.391C266.178 662.374 266.249 662.36 266.302 662.349L266.558 663.478C266.472 663.51 266.353 663.542 266.201 663.574C266.048 663.61 265.854 663.627 265.62 663.627C265.265 663.627 264.917 663.551 264.576 663.398C264.239 663.246 263.958 663.013 263.734 662.7C263.514 662.388 263.404 661.994 263.404 661.518V653.379ZM268.299 663.521V655.339H269.556V663.521H268.299ZM268.939 653.975C268.694 653.975 268.482 653.892 268.305 653.725C268.131 653.558 268.044 653.357 268.044 653.123C268.044 652.889 268.131 652.688 268.305 652.521C268.482 652.354 268.694 652.271 268.939 652.271C269.184 652.271 269.393 652.354 269.567 652.521C269.745 652.688 269.833 652.889 269.833 653.123C269.833 653.357 269.745 653.558 269.567 653.725C269.393 653.892 269.184 653.975 268.939 653.975ZM275.183 663.691C274.416 663.691 273.755 663.51 273.201 663.148C272.647 662.786 272.221 662.287 271.923 661.651C271.625 661.015 271.475 660.289 271.475 659.472C271.475 658.641 271.628 657.908 271.934 657.273C272.242 656.633 272.672 656.134 273.223 655.776C273.777 655.414 274.423 655.232 275.161 655.232C275.737 655.232 276.255 655.339 276.717 655.552C277.179 655.765 277.557 656.063 277.851 656.447C278.146 656.83 278.329 657.278 278.4 657.789H277.143C277.047 657.416 276.834 657.086 276.504 656.798C276.177 656.507 275.737 656.362 275.183 656.362C274.693 656.362 274.263 656.49 273.894 656.745C273.528 656.997 273.242 657.354 273.036 657.816C272.834 658.274 272.733 658.812 272.733 659.43C272.733 660.062 272.832 660.612 273.031 661.081C273.233 661.55 273.517 661.914 273.883 662.173C274.252 662.432 274.686 662.562 275.183 662.562C275.51 662.562 275.806 662.505 276.072 662.391C276.339 662.278 276.564 662.115 276.749 661.901C276.934 661.688 277.065 661.433 277.143 661.134H278.4C278.329 661.617 278.153 662.052 277.873 662.439C277.596 662.823 277.228 663.128 276.77 663.356C276.316 663.579 275.786 663.691 275.183 663.691ZM285.394 660.176V655.339H286.651V663.521H285.394V662.136H285.309C285.117 662.551 284.819 662.905 284.414 663.196C284.009 663.483 283.498 663.627 282.88 663.627C282.369 663.627 281.914 663.515 281.516 663.292C281.119 663.064 280.806 662.724 280.579 662.269C280.351 661.811 280.238 661.234 280.238 660.538V655.339H281.495V660.453C281.495 661.049 281.662 661.525 281.996 661.88C282.333 662.235 282.763 662.413 283.285 662.413C283.597 662.413 283.915 662.333 284.238 662.173C284.565 662.013 284.838 661.768 285.059 661.438C285.282 661.108 285.394 660.687 285.394 660.176ZM290.211 652.612V663.521H288.954V652.612H290.211ZM295.944 663.691C295.155 663.691 294.475 663.517 293.904 663.169C293.335 662.818 292.897 662.328 292.588 661.699C292.282 661.067 292.13 660.332 292.13 659.494C292.13 658.656 292.282 657.917 292.588 657.278C292.897 656.635 293.326 656.134 293.877 655.776C294.431 655.414 295.077 655.232 295.816 655.232C296.242 655.232 296.663 655.303 297.078 655.445C297.494 655.588 297.872 655.818 298.213 656.138C298.554 656.454 298.825 656.873 299.028 657.395C299.23 657.917 299.331 658.56 299.331 659.323V659.856H293.025V658.769H298.053C298.053 658.308 297.961 657.896 297.776 657.534C297.595 657.171 297.336 656.885 296.998 656.676C296.665 656.466 296.27 656.362 295.816 656.362C295.315 656.362 294.882 656.486 294.516 656.735C294.154 656.98 293.875 657.299 293.68 657.693C293.484 658.088 293.387 658.51 293.387 658.961V659.686C293.387 660.303 293.493 660.827 293.706 661.257C293.923 661.683 294.223 662.008 294.607 662.232C294.99 662.452 295.436 662.562 295.944 662.562C296.274 662.562 296.572 662.516 296.839 662.423C297.108 662.328 297.341 662.186 297.536 661.997C297.732 661.806 297.883 661.568 297.989 661.284L299.204 661.624C299.076 662.036 298.861 662.399 298.559 662.711C298.257 663.02 297.884 663.262 297.44 663.436C296.997 663.606 296.498 663.691 295.944 663.691ZM307.039 657.171L305.91 657.491C305.839 657.303 305.734 657.12 305.596 656.942C305.461 656.761 305.276 656.612 305.042 656.495C304.807 656.378 304.507 656.319 304.141 656.319C303.641 656.319 303.223 656.434 302.89 656.665C302.559 656.893 302.394 657.182 302.394 657.534C302.394 657.846 302.508 658.093 302.735 658.274C302.962 658.455 303.318 658.606 303.801 658.727L305.015 659.025C305.747 659.203 306.292 659.474 306.65 659.84C307.009 660.202 307.188 660.669 307.188 661.241C307.188 661.71 307.053 662.129 306.783 662.498C306.517 662.867 306.144 663.159 305.665 663.372C305.185 663.585 304.628 663.691 303.992 663.691C303.158 663.691 302.467 663.51 301.92 663.148C301.373 662.786 301.027 662.257 300.881 661.561L302.075 661.262C302.188 661.703 302.403 662.033 302.719 662.253C303.039 662.473 303.456 662.583 303.971 662.583C304.557 662.583 305.022 662.459 305.367 662.21C305.715 661.958 305.889 661.656 305.889 661.305C305.889 661.021 305.789 660.783 305.59 660.591C305.391 660.396 305.086 660.25 304.674 660.154L303.31 659.835C302.561 659.657 302.011 659.382 301.659 659.009C301.311 658.633 301.137 658.162 301.137 657.597C301.137 657.136 301.267 656.727 301.526 656.372C301.789 656.017 302.146 655.738 302.597 655.536C303.051 655.334 303.566 655.232 304.141 655.232C304.951 655.232 305.587 655.41 306.048 655.765C306.514 656.12 306.844 656.589 307.039 657.171ZM260.422 671.339V672.404H256.011V671.339H260.422ZM257.332 679.521V670.21C257.332 669.741 257.442 669.35 257.663 669.038C257.883 668.725 258.169 668.491 258.52 668.335C258.872 668.178 259.243 668.1 259.633 668.1C259.942 668.1 260.195 668.125 260.39 668.175C260.585 668.225 260.731 668.271 260.827 668.313L260.464 669.4C260.401 669.379 260.312 669.352 260.198 669.32C260.088 669.288 259.942 669.272 259.761 669.272C259.346 669.272 259.046 669.377 258.861 669.586C258.68 669.796 258.589 670.103 258.589 670.508V679.521H257.332ZM262.184 679.521V671.339H263.441V679.521H262.184ZM262.823 669.975C262.578 669.975 262.367 669.892 262.189 669.725C262.015 669.558 261.928 669.357 261.928 669.123C261.928 668.889 262.015 668.688 262.189 668.521C262.367 668.354 262.578 668.271 262.823 668.271C263.068 668.271 263.277 668.354 263.451 668.521C263.629 668.688 263.718 668.889 263.718 669.123C263.718 669.357 263.629 669.558 263.451 669.725C263.277 669.892 263.068 669.975 262.823 669.975ZM267 674.599V679.521H265.743V671.339H266.958V672.617H267.064C267.256 672.202 267.547 671.868 267.938 671.616C268.328 671.36 268.833 671.232 269.451 671.232C270.005 671.232 270.489 671.346 270.905 671.573C271.32 671.797 271.643 672.138 271.874 672.596C272.105 673.051 272.22 673.626 272.22 674.322V679.521H270.963V674.407C270.963 673.764 270.796 673.264 270.463 672.905C270.129 672.543 269.671 672.362 269.088 672.362C268.687 672.362 268.328 672.449 268.012 672.623C267.7 672.797 267.453 673.051 267.272 673.384C267.091 673.718 267 674.123 267 674.599ZM277.948 679.691C277.16 679.691 276.48 679.517 275.908 679.169C275.34 678.818 274.901 678.328 274.592 677.699C274.287 677.067 274.134 676.332 274.134 675.494C274.134 674.656 274.287 673.917 274.592 673.278C274.901 672.635 275.331 672.134 275.881 671.776C276.435 671.414 277.082 671.232 277.82 671.232C278.246 671.232 278.667 671.303 279.083 671.445C279.498 671.588 279.876 671.818 280.217 672.138C280.558 672.454 280.83 672.873 281.032 673.395C281.235 673.917 281.336 674.56 281.336 675.323V675.856H275.029V674.769H280.057C280.057 674.308 279.965 673.896 279.78 673.534C279.599 673.171 279.34 672.885 279.003 672.676C278.669 672.466 278.275 672.362 277.82 672.362C277.319 672.362 276.886 672.486 276.52 672.735C276.158 672.98 275.879 673.299 275.684 673.693C275.489 674.088 275.391 674.51 275.391 674.961V675.686C275.391 676.303 275.498 676.827 275.711 677.257C275.927 677.683 276.227 678.008 276.611 678.232C276.995 678.452 277.44 678.562 277.948 678.562C278.278 678.562 278.577 678.516 278.843 678.423C279.113 678.328 279.345 678.186 279.541 677.997C279.736 677.806 279.887 677.568 279.993 677.284L281.208 677.624C281.08 678.036 280.865 678.399 280.563 678.711C280.262 679.02 279.889 679.262 279.445 679.436C279.001 679.606 278.502 679.691 277.948 679.691ZM289.044 673.171L287.914 673.491C287.843 673.303 287.739 673.12 287.6 672.942C287.465 672.761 287.28 672.612 287.046 672.495C286.812 672.378 286.512 672.319 286.146 672.319C285.645 672.319 285.228 672.434 284.894 672.665C284.564 672.893 284.399 673.182 284.399 673.534C284.399 673.846 284.512 674.093 284.74 674.274C284.967 674.455 285.322 674.606 285.805 674.727L287.019 675.025C287.751 675.203 288.296 675.474 288.655 675.84C289.013 676.202 289.193 676.669 289.193 677.241C289.193 677.71 289.058 678.129 288.788 678.498C288.522 678.867 288.149 679.159 287.669 679.372C287.19 679.585 286.632 679.691 285.997 679.691C285.162 679.691 284.471 679.51 283.925 679.148C283.378 678.786 283.031 678.257 282.886 677.561L284.079 677.262C284.193 677.703 284.408 678.033 284.724 678.253C285.043 678.473 285.46 678.583 285.975 678.583C286.561 678.583 287.027 678.459 287.371 678.21C287.719 677.958 287.893 677.656 287.893 677.305C287.893 677.021 287.794 676.783 287.595 676.591C287.396 676.396 287.09 676.25 286.678 676.154L285.315 675.835C284.566 675.657 284.015 675.382 283.664 675.009C283.316 674.633 283.142 674.162 283.142 673.597C283.142 673.136 283.271 672.727 283.53 672.372C283.793 672.017 284.15 671.738 284.601 671.536C285.056 671.334 285.571 671.232 286.146 671.232C286.955 671.232 287.591 671.41 288.053 671.765C288.518 672.12 288.848 672.589 289.044 673.171Z" fill="#110101"/>
<line x1="76.9231" y1="636.87" x2="321.893" y2="636.87" stroke="#110101" stroke-width="2"/>
<path d="M124.353 748.378C124.234 747.994 124.071 747.651 123.863 747.348C123.659 747.04 123.413 746.777 123.124 746.559C122.84 746.342 122.513 746.178 122.144 746.069C121.775 745.956 121.372 745.899 120.937 745.899C120.155 745.899 119.459 746.095 118.849 746.488C118.238 746.881 117.757 747.459 117.407 748.221C117.061 748.979 116.888 749.902 116.888 750.991C116.888 752.09 117.061 753.02 117.407 753.782C117.752 754.545 118.233 755.125 118.849 755.522C119.464 755.915 120.179 756.112 120.993 756.112C121.732 756.112 122.371 755.97 122.911 755.686C123.456 755.402 123.875 754.999 124.168 754.478C124.462 753.953 124.608 753.337 124.608 752.632L125.205 752.724H121.256V750.664H127.158V752.412C127.158 753.657 126.893 754.734 126.363 755.643C125.832 756.552 125.103 757.253 124.175 757.745C123.247 758.233 122.182 758.477 120.979 758.477C119.639 758.477 118.463 758.176 117.449 757.575C116.441 756.969 115.652 756.11 115.084 754.997C114.521 753.879 114.239 752.554 114.239 751.02C114.239 749.845 114.405 748.797 114.736 747.873C115.072 746.95 115.541 746.166 116.143 745.522C116.744 744.874 117.449 744.381 118.259 744.045C119.069 743.704 119.949 743.534 120.901 743.534C121.706 743.534 122.456 743.652 123.152 743.889C123.849 744.121 124.466 744.452 125.006 744.883C125.551 745.314 125.998 745.825 126.349 746.417C126.699 747.009 126.929 747.663 127.037 748.378H124.353ZM132.732 758.498C132.04 758.498 131.418 758.375 130.864 758.129C130.315 757.878 129.879 757.509 129.557 757.021C129.24 756.533 129.081 755.932 129.081 755.217C129.081 754.601 129.195 754.092 129.422 753.69C129.649 753.288 129.959 752.966 130.352 752.724C130.745 752.483 131.188 752.3 131.681 752.177C132.178 752.049 132.691 751.957 133.222 751.9C133.861 751.834 134.379 751.775 134.777 751.723C135.175 751.666 135.464 751.581 135.644 751.467C135.828 751.349 135.921 751.166 135.921 750.92V750.878C135.921 750.342 135.762 749.928 135.445 749.635C135.128 749.341 134.671 749.194 134.074 749.194C133.444 749.194 132.945 749.332 132.575 749.606C132.211 749.881 131.965 750.205 131.837 750.579L129.436 750.238C129.626 749.575 129.938 749.021 130.374 748.576C130.809 748.127 131.342 747.79 131.972 747.568C132.601 747.341 133.297 747.227 134.06 747.227C134.585 747.227 135.109 747.288 135.629 747.412C136.15 747.535 136.626 747.738 137.057 748.022C137.488 748.302 137.833 748.683 138.094 749.166C138.359 749.649 138.492 750.253 138.492 750.977V758.278H136.02V756.779H135.935C135.779 757.083 135.558 757.367 135.274 757.632C134.995 757.892 134.642 758.103 134.216 758.264C133.795 758.42 133.3 758.498 132.732 758.498ZM133.399 756.609C133.915 756.609 134.363 756.507 134.742 756.304C135.12 756.095 135.412 755.821 135.615 755.48C135.824 755.139 135.928 754.767 135.928 754.365V753.079C135.847 753.146 135.71 753.207 135.516 753.264C135.326 753.321 135.113 753.37 134.877 753.413C134.64 753.456 134.405 753.494 134.173 753.527C133.941 753.56 133.74 753.588 133.57 753.612C133.186 753.664 132.843 753.749 132.54 753.868C132.237 753.986 131.998 754.152 131.823 754.365C131.647 754.573 131.56 754.843 131.56 755.174C131.56 755.648 131.733 756.005 132.078 756.247C132.424 756.488 132.864 756.609 133.399 756.609ZM141.077 758.278V747.369H143.57V749.187H143.683C143.882 748.557 144.223 748.072 144.706 747.731C145.194 747.386 145.75 747.213 146.375 747.213C146.517 747.213 146.676 747.22 146.851 747.234C147.031 747.244 147.18 747.26 147.298 747.284V749.649C147.19 749.611 147.017 749.578 146.78 749.549C146.548 749.516 146.323 749.5 146.105 749.5C145.637 749.5 145.215 749.601 144.841 749.805C144.472 750.004 144.181 750.281 143.967 750.636C143.754 750.991 143.648 751.401 143.648 751.865V758.278H141.077ZM152.606 758.47C151.749 758.47 150.982 758.25 150.304 757.809C149.627 757.369 149.092 756.73 148.699 755.892C148.306 755.054 148.11 754.036 148.11 752.838C148.11 751.626 148.309 750.603 148.706 749.77C149.109 748.931 149.651 748.299 150.333 747.873C151.015 747.442 151.775 747.227 152.613 747.227C153.252 747.227 153.777 747.336 154.189 747.554C154.601 747.767 154.928 748.025 155.17 748.328C155.411 748.626 155.598 748.908 155.731 749.173H155.837V743.733H158.415V758.278H155.887V756.559H155.731C155.598 756.824 155.406 757.106 155.155 757.404C154.904 757.698 154.573 757.949 154.161 758.157C153.749 758.366 153.231 758.47 152.606 758.47ZM153.323 756.36C153.867 756.36 154.331 756.214 154.715 755.92C155.099 755.622 155.39 755.208 155.589 754.677C155.787 754.147 155.887 753.529 155.887 752.824C155.887 752.118 155.787 751.505 155.589 750.984C155.394 750.463 155.106 750.058 154.722 749.77C154.343 749.481 153.877 749.336 153.323 749.336C152.75 749.336 152.272 749.485 151.888 749.784C151.505 750.082 151.216 750.494 151.022 751.02C150.828 751.545 150.731 752.146 150.731 752.824C150.731 753.505 150.828 754.114 151.022 754.649C151.221 755.179 151.512 755.598 151.895 755.906C152.284 756.209 152.759 756.36 153.323 756.36ZM165.985 758.491C164.891 758.491 163.946 758.264 163.151 757.809C162.36 757.35 161.752 756.701 161.325 755.863C160.899 755.021 160.686 754.029 160.686 752.887C160.686 751.765 160.899 750.78 161.325 749.933C161.756 749.081 162.358 748.418 163.129 747.944C163.901 747.466 164.808 747.227 165.85 747.227C166.522 747.227 167.156 747.336 167.753 747.554C168.354 747.767 168.885 748.098 169.344 748.548C169.808 748.998 170.172 749.571 170.438 750.267C170.703 750.958 170.835 751.782 170.835 752.738V753.527H161.894V751.794H168.371C168.366 751.301 168.26 750.863 168.051 750.48C167.843 750.092 167.552 749.786 167.178 749.564C166.808 749.341 166.378 749.23 165.885 749.23C165.36 749.23 164.898 749.358 164.5 749.613C164.102 749.864 163.792 750.196 163.57 750.608C163.352 751.015 163.241 751.462 163.236 751.95V753.463C163.236 754.097 163.352 754.642 163.584 755.096C163.816 755.546 164.14 755.892 164.557 756.133C164.974 756.37 165.461 756.488 166.02 756.488C166.394 756.488 166.733 756.436 167.036 756.332C167.339 756.223 167.601 756.065 167.824 755.856C168.047 755.648 168.215 755.39 168.328 755.082L170.729 755.352C170.577 755.986 170.288 756.54 169.862 757.014C169.441 757.483 168.901 757.847 168.243 758.108C167.585 758.363 166.832 758.491 165.985 758.491ZM173.01 758.278V747.369H175.503V749.187H175.617C175.816 748.557 176.157 748.072 176.64 747.731C177.127 747.386 177.684 747.213 178.309 747.213C178.451 747.213 178.609 747.22 178.785 747.234C178.965 747.244 179.114 747.26 179.232 747.284V749.649C179.123 749.611 178.95 749.578 178.714 749.549C178.482 749.516 178.257 749.5 178.039 749.5C177.57 749.5 177.149 749.601 176.775 749.805C176.405 750.004 176.114 750.281 175.901 750.636C175.688 750.991 175.581 751.401 175.581 751.865V758.278H173.01ZM188.472 743.733V758.278H185.901V743.733H188.472ZM195.945 758.491C194.852 758.491 193.907 758.264 193.112 757.809C192.321 757.35 191.712 756.701 191.286 755.863C190.86 755.021 190.647 754.029 190.647 752.887C190.647 751.765 190.86 750.78 191.286 749.933C191.717 749.081 192.319 748.418 193.09 747.944C193.862 747.466 194.769 747.227 195.811 747.227C196.483 747.227 197.117 747.336 197.714 747.554C198.315 747.767 198.846 748.098 199.305 748.548C199.769 748.998 200.133 749.571 200.399 750.267C200.664 750.958 200.796 751.782 200.796 752.738V753.527H191.855V751.794H198.332C198.327 751.301 198.221 750.863 198.012 750.48C197.804 750.092 197.513 749.786 197.139 749.564C196.769 749.341 196.338 749.23 195.846 749.23C195.32 749.23 194.859 749.358 194.461 749.613C194.063 749.864 193.753 750.196 193.531 750.608C193.313 751.015 193.202 751.462 193.197 751.95V753.463C193.197 754.097 193.313 754.642 193.545 755.096C193.777 755.546 194.101 755.892 194.518 756.133C194.935 756.37 195.422 756.488 195.981 756.488C196.355 756.488 196.694 756.436 196.997 756.332C197.3 756.223 197.562 756.065 197.785 755.856C198.007 755.648 198.176 755.39 198.289 755.082L200.69 755.352C200.538 755.986 200.249 756.54 199.823 757.014C199.402 757.483 198.862 757.847 198.204 758.108C197.546 758.363 196.793 758.491 195.945 758.491ZM212.691 758.491C211.602 758.491 210.667 758.252 209.885 757.774C209.109 757.296 208.51 756.635 208.089 755.792C207.672 754.945 207.464 753.969 207.464 752.866C207.464 751.758 207.677 750.78 208.103 749.933C208.529 749.081 209.13 748.418 209.907 747.944C210.688 747.466 211.611 747.227 212.677 747.227C213.562 747.227 214.346 747.39 215.027 747.717C215.714 748.039 216.261 748.496 216.668 749.088C217.075 749.675 217.307 750.361 217.364 751.147H214.907C214.807 750.622 214.571 750.184 214.197 749.833C213.827 749.478 213.332 749.301 212.712 749.301C212.187 749.301 211.725 749.443 211.327 749.727C210.929 750.006 210.619 750.409 210.397 750.934C210.179 751.46 210.07 752.09 210.07 752.824C210.07 753.567 210.179 754.206 210.397 754.741C210.615 755.271 210.92 755.681 211.313 755.97C211.711 756.254 212.177 756.396 212.712 756.396C213.091 756.396 213.429 756.325 213.728 756.183C214.031 756.036 214.284 755.825 214.488 755.551C214.691 755.276 214.831 754.942 214.907 754.549H217.364C217.303 755.321 217.075 756.005 216.682 756.602C216.289 757.194 215.754 757.658 215.077 757.994C214.4 758.325 213.605 758.491 212.691 758.491ZM224.234 758.491C223.168 758.491 222.245 758.257 221.464 757.788C220.683 757.319 220.077 756.663 219.646 755.821C219.22 754.978 219.007 753.993 219.007 752.866C219.007 751.739 219.22 750.752 219.646 749.904C220.077 749.057 220.683 748.399 221.464 747.93C222.245 747.461 223.168 747.227 224.234 747.227C225.299 747.227 226.222 747.461 227.004 747.93C227.785 748.399 228.389 749.057 228.815 749.904C229.246 750.752 229.461 751.739 229.461 752.866C229.461 753.993 229.246 754.978 228.815 755.821C228.389 756.663 227.785 757.319 227.004 757.788C226.222 758.257 225.299 758.491 224.234 758.491ZM224.248 756.431C224.826 756.431 225.309 756.273 225.697 755.956C226.085 755.634 226.374 755.203 226.563 754.663C226.757 754.123 226.855 753.522 226.855 752.859C226.855 752.191 226.757 751.588 226.563 751.048C226.374 750.503 226.085 750.07 225.697 749.748C225.309 749.426 224.826 749.265 224.248 749.265C223.656 749.265 223.164 749.426 222.771 749.748C222.382 750.07 222.091 750.503 221.897 751.048C221.708 751.588 221.613 752.191 221.613 752.859C221.613 753.522 221.708 754.123 221.897 754.663C222.091 755.203 222.382 755.634 222.771 755.956C223.164 756.273 223.656 756.431 224.248 756.431ZM234.214 751.886V758.278H231.643V747.369H234.101V749.223H234.228C234.479 748.612 234.88 748.127 235.429 747.767C235.983 747.407 236.667 747.227 237.481 747.227C238.234 747.227 238.89 747.388 239.449 747.71C240.012 748.032 240.448 748.498 240.755 749.109C241.068 749.72 241.222 750.461 241.217 751.332V758.278H238.646V751.73C238.646 751.001 238.457 750.43 238.078 750.018C237.704 749.606 237.185 749.4 236.523 749.4C236.073 749.4 235.673 749.5 235.322 749.699C234.977 749.893 234.704 750.174 234.505 750.544C234.311 750.913 234.214 751.36 234.214 751.886ZM249.278 747.369V749.358H243.007V747.369H249.278ZM244.555 744.755H247.126V754.997C247.126 755.342 247.178 755.608 247.282 755.792C247.391 755.972 247.533 756.095 247.709 756.162C247.884 756.228 248.078 756.261 248.291 756.261C248.452 756.261 248.599 756.249 248.731 756.226C248.869 756.202 248.973 756.181 249.044 756.162L249.477 758.172C249.34 758.219 249.143 758.271 248.888 758.328C248.637 758.385 248.329 758.418 247.964 758.427C247.32 758.446 246.74 758.349 246.224 758.136C245.708 757.918 245.299 757.582 244.996 757.128C244.697 756.673 244.55 756.105 244.555 755.423V744.755ZM251.428 758.278V747.369H253.921V749.187H254.035C254.234 748.557 254.575 748.072 255.058 747.731C255.545 747.386 256.102 747.213 256.727 747.213C256.869 747.213 257.027 747.22 257.203 747.234C257.382 747.244 257.532 747.26 257.65 747.284V749.649C257.541 749.611 257.368 749.578 257.132 749.549C256.9 749.516 256.675 749.5 256.457 749.5C255.988 749.5 255.567 749.601 255.193 749.805C254.823 750.004 254.532 750.281 254.319 750.636C254.106 750.991 253.999 751.401 253.999 751.865V758.278H251.428ZM263.667 758.491C262.602 758.491 261.679 758.257 260.898 757.788C260.116 757.319 259.51 756.663 259.079 755.821C258.653 754.978 258.44 753.993 258.44 752.866C258.44 751.739 258.653 750.752 259.079 749.904C259.51 749.057 260.116 748.399 260.898 747.93C261.679 747.461 262.602 747.227 263.667 747.227C264.733 747.227 265.656 747.461 266.437 747.93C267.219 748.399 267.822 749.057 268.248 749.904C268.679 750.752 268.895 751.739 268.895 752.866C268.895 753.993 268.679 754.978 268.248 755.821C267.822 756.663 267.219 757.319 266.437 757.788C265.656 758.257 264.733 758.491 263.667 758.491ZM263.682 756.431C264.259 756.431 264.742 756.273 265.13 755.956C265.519 755.634 265.808 755.203 265.997 754.663C266.191 754.123 266.288 753.522 266.288 752.859C266.288 752.191 266.191 751.588 265.997 751.048C265.808 750.503 265.519 750.07 265.13 749.748C264.742 749.426 264.259 749.265 263.682 749.265C263.09 749.265 262.597 749.426 262.204 749.748C261.816 750.07 261.525 750.503 261.331 751.048C261.141 751.588 261.047 752.191 261.047 752.859C261.047 753.522 261.141 754.123 261.331 754.663C261.525 755.203 261.816 755.634 262.204 755.956C262.597 756.273 263.09 756.431 263.682 756.431ZM265.109 746.062L263.667 744.244L262.226 746.062H259.974V745.963L262.666 742.895H264.676L267.361 745.963V746.062H265.109ZM273.648 743.733V758.278H271.077V743.733H273.648ZM281.121 758.491C280.027 758.491 279.083 758.264 278.287 757.809C277.497 757.35 276.888 756.701 276.462 755.863C276.036 755.021 275.823 754.029 275.823 752.887C275.823 751.765 276.036 750.78 276.462 749.933C276.893 749.081 277.494 748.418 278.266 747.944C279.038 747.466 279.945 747.227 280.986 747.227C281.659 747.227 282.293 747.336 282.89 747.554C283.491 747.767 284.021 748.098 284.481 748.548C284.945 748.998 285.309 749.571 285.574 750.267C285.84 750.958 285.972 751.782 285.972 752.738V753.527H277.03V751.794H283.508C283.503 751.301 283.396 750.863 283.188 750.48C282.98 750.092 282.688 749.786 282.314 749.564C281.945 749.341 281.514 749.23 281.022 749.23C280.496 749.23 280.035 749.358 279.637 749.613C279.239 749.864 278.929 750.196 278.706 750.608C278.489 751.015 278.377 751.462 278.373 751.95V753.463C278.373 754.097 278.489 754.642 278.721 755.096C278.953 755.546 279.277 755.892 279.694 756.133C280.11 756.37 280.598 756.488 281.157 756.488C281.531 756.488 281.869 756.436 282.172 756.332C282.475 756.223 282.738 756.065 282.961 755.856C283.183 755.648 283.351 755.39 283.465 755.082L285.866 755.352C285.714 755.986 285.425 756.54 284.999 757.014C284.578 757.483 284.038 757.847 283.38 758.108C282.722 758.363 281.969 758.491 281.121 758.491Z" fill="#435EFE"/>
</g>
<defs>
<filter id="filter0_d_234_427" x="17.3555" y="13.7262" width="366.625" height="788.832" filterUnits="userSpaceOnUse" color-interpolation-filters="sRGB">
<feFlood flood-opacity="0" result="BackgroundImageFix"/>
<feColorMatrix in="SourceAlpha" type="matrix" values="0 0 0 0 0 0 0 0 0 0 0 0 0 0 0 0 0 0 127 0" result="hardAlpha"/>
<feOffset dy="4"/>
<feGaussianBlur stdDeviation="2"/>
<feComposite in2="hardAlpha" operator="out"/>
<feColorMatrix type="matrix" values="0 0 0 0 0 0 0 0 0 0 0 0 0 0 0 0 0 0 0.25 0"/>
<feBlend mode="normal" in2="BackgroundImageFix" result="effect1_dropShadow_234_427"/>
<feBlend mode="normal" in="SourceGraphic" in2="effect1_dropShadow_234_427" result="shape"/>
</filter>
<clipPath id="clip0_234_427">
<rect width="400" height="808.284" fill="white"/>
</clipPath>
<clipPath id="clip1_234_427">
<rect width="177.515" height="28.4024" fill="white" transform="translate(112.426 61.5385)"/>
</clipPath>
</defs>
</svg>
