<svg width="60" height="60" viewBox="0 0 60 60" fill="none" xmlns="http://www.w3.org/2000/svg">
<path d="M7.5 10.7235C7.5 8.94369 8.97941 7.5 10.8044 7.5H49.1955C51.0205 7.5 52.5 8.9437 52.5 10.7235V49.2765C52.5 51.0569 51.0205 52.5 49.1955 52.5L10.8044 52.5C8.97941 52.5 7.5 51.0569 7.5 49.2765V10.7235ZM21.4033 45.1697V24.8496H14.6493V45.1697H21.4033ZM18.0262 22.0753C20.3815 22.0753 21.8474 20.5149 21.8474 18.5649C21.8035 16.5711 20.3815 15.054 18.0709 15.054C15.7606 15.054 14.25 16.5711 14.25 18.5649C14.25 20.5149 15.7156 22.0753 17.9822 22.0753H18.0262ZM31.8321 45.1697V33.8221C31.8321 33.2148 31.876 32.6081 32.0543 32.174C32.5425 30.9606 33.6539 29.7039 35.5197 29.7039C37.9636 29.7039 38.9412 31.5673 38.9412 34.2989V45.1697H45.6946V33.5184C45.6946 27.277 42.3626 24.3728 37.919 24.3728C34.3362 24.3728 32.7298 26.342 31.8322 27.7266V27.7966H31.7871C31.802 27.7734 31.817 27.7501 31.8322 27.7266V24.8496H25.0783C25.1669 26.7563 25.0783 45.1697 25.0783 45.1697H31.8321Z" fill="#435EFE"/>
</svg>
