<svg width="400" height="64" viewBox="0 0 400 64" fill="none" xmlns="http://www.w3.org/2000/svg">
<g clip-path="url(#clip0_227_471)">
<path d="M31.4708 0C31.2153 0 30.9599 0 30.7044 0.00638531C22.3066 0.20433 14.4898 3.66517 8.69116 9.74399C2.89248 15.8228 -0.192054 23.7917 0.00591887 32.1947C0.40825 49.2755 14.4387 62.8953 31.4388 62.8953C31.6879 62.8953 31.9433 62.8953 32.1924 62.8889C49.5309 62.4803 63.2996 48.0431 62.8845 30.707C62.6865 22.3103 59.2252 14.4947 53.1455 8.6968C47.2575 3.07134 39.5876 0 31.4708 0ZM31.4388 53.8473C25.6593 53.8473 20.1927 51.6636 15.9906 47.66C11.6607 43.5287 9.19567 37.9607 9.05517 31.9777C8.76141 19.6285 18.5706 9.3481 30.9215 9.05437C43.2597 8.74788 53.5543 18.5685 53.848 30.9177C53.9885 36.9007 51.7917 42.5773 47.6662 46.9065C43.5407 51.2358 37.9655 53.7005 31.9817 53.841C31.7965 53.841 31.6176 53.841 31.4388 53.841V53.8473Z" fill="#110101"/>
<path d="M69.2009 37.7947H94.982V31.6009H79.0995L87.6251 23.4852C91.8719 19.4369 93.941 15.6313 93.941 11.8384C93.941 8.3967 92.7149 5.63824 90.2881 3.63964C87.855 1.57718 84.8726 0.536377 81.4305 0.536377C76.0277 0.536377 71.4361 3.24375 69.0668 7.80286L74.776 10.9891C76.2576 8.19237 78.5311 6.78121 81.539 6.78121C84.8215 6.78121 87.1078 8.97138 87.1078 12.1066C87.1078 14.2009 85.5496 16.8253 82.4842 19.9158L69.1945 32.9355V37.7883L69.2009 37.7947Z" fill="#110101"/>
<path d="M232.554 62.7613H241.367V35.464C241.367 24.4302 234.731 17.3042 224.469 17.3042C217.578 17.3042 211.62 19.8903 208.931 24.0535L208.05 25.4135V18.6068H199.237V62.7613H208.05V38.9887C208.05 32.265 212.341 25.4774 221.94 25.4774C228.588 25.4774 232.554 29.5768 232.554 36.4538V62.7613Z" fill="#110101"/>
<path d="M282.871 62.7613H291.684V35.464C291.684 24.4302 285.048 17.3042 274.786 17.3042C267.895 17.3042 261.937 19.8903 259.248 24.0535L258.367 25.4135V18.6068H249.554V62.7613H258.367V38.9887C258.367 32.265 262.658 25.4774 272.257 25.4774C278.905 25.4774 282.871 29.5768 282.871 36.4538V62.7613Z" fill="#110101"/>
<path d="M319.917 17.3745C307.873 17.3745 298.07 27.8336 298.07 40.6872C298.07 53.5409 307.873 64 319.917 64C327.102 64 333.999 61.5864 338.475 57.5189L334.165 51.9062C331.802 53.7388 327.268 56.4717 321.188 56.4717C313.243 56.4717 307.668 49.6139 307.055 43.2605L307.004 42.7369H340.295C341.202 36.0196 339.255 29.1234 335.046 24.2259C332.364 21.1035 327.561 17.3808 319.93 17.3808L319.917 17.3745ZM331.949 35.9366H307.458L307.534 35.3874C308.313 30.0493 312.669 24.6473 319.496 24.6473C326.322 24.6473 331.099 30.1068 331.872 35.3874L331.949 35.9366Z" fill="#110101"/>
<path d="M381.895 10.5358V50.8526C381.895 55.284 383.038 58.5086 385.286 60.4242C387.457 62.2696 389.667 63.3423 394.552 63.3423C395.689 63.3423 396.213 63.2976 397.113 63.2146C397.867 63.1444 399.189 62.9911 400 62.8889V55.9673C399.744 55.9928 399.451 56.0311 399.17 56.0567C398.831 56.095 398.518 56.1269 398.352 56.1461C397.912 56.1908 397.394 56.2099 396.826 56.2099C394.75 56.2099 393.135 55.7565 392.036 54.8626C390.906 53.9431 390.338 52.3085 390.338 50.0098V27.0418H400.006V19.9158H390.338V10.5358H381.901H381.895Z" fill="#110101"/>
<path d="M368.337 17.8789C368.158 17.8789 367.973 17.8789 367.794 17.8789C355.265 18.179 345.309 28.6126 345.609 41.1406C345.749 47.213 348.253 52.864 352.646 57.0528C357.04 61.2415 362.788 63.4636 368.874 63.3295C370.962 63.2785 373.025 62.9464 375.017 62.3334V53.5728C373.057 54.588 370.879 55.1436 368.682 55.201C364.774 55.2904 361.082 53.8601 358.26 51.1719C355.437 48.4837 353.834 44.8504 353.738 40.9554C353.649 37.0604 355.079 33.3569 357.768 30.5346C360.457 27.7123 364.09 26.1095 367.986 26.0138C370.438 25.9563 372.846 26.5118 375.017 27.6356V18.8814C372.852 18.2173 370.611 17.8789 368.337 17.8789Z" fill="#110101"/>
<path d="M170.422 17.2914C170.237 17.2914 170.052 17.2914 169.867 17.2978C163.793 17.4383 158.148 19.9413 153.952 24.3344C149.763 28.7275 147.534 34.4935 147.675 40.5595C147.968 52.9087 158.11 62.7485 170.397 62.7485C170.576 62.7485 170.761 62.7485 170.946 62.7421C183.476 62.442 193.432 52.0084 193.132 39.4804C192.985 33.408 190.488 27.7633 186.094 23.5682C181.834 19.5071 176.285 17.285 170.422 17.285V17.2914ZM170.397 54.62C166.629 54.62 163.065 53.196 160.332 50.5844C157.509 47.8962 155.906 44.263 155.811 40.3679C155.619 32.3224 162.012 25.6179 170.058 25.4263C178.098 25.2603 184.81 31.6264 185.002 39.6719C185.091 43.567 183.661 47.2705 180.972 50.0928C178.284 52.9151 174.65 54.5178 170.754 54.6136C170.633 54.6136 170.518 54.6136 170.397 54.6136V54.62Z" fill="#110101"/>
<path d="M134.883 0C134.634 0 134.379 0 134.129 0.00638531C125.732 0.20433 117.915 3.66517 112.116 9.74399C106.318 15.8228 103.233 23.7917 103.437 32.1947C103.84 49.2755 117.87 62.8953 134.87 62.8953C135.119 62.8953 135.375 62.8953 135.624 62.8889C138.415 62.8251 141.199 62.3781 143.907 61.5608V52.4426C141.225 53.5983 138.37 54.2241 135.42 54.2943C122.832 54.6136 112.333 44.5886 112.033 31.9968C111.733 19.405 121.74 8.9139 134.334 8.61379C137.655 8.53716 140.873 9.15654 143.907 10.4719V1.32176C140.982 0.440587 137.948 0 134.883 0Z" fill="#110101"/>
</g>
<defs>
<clipPath id="clip0_227_471">
<rect width="400" height="64" fill="white"/>
</clipPath>
</defs>
</svg>
