<svg width="150" height="24" viewBox="0 0 150 24" fill="none" xmlns="http://www.w3.org/2000/svg">
<g clip-path="url(#clip0_140_3523)">
<path d="M11.8015 0C11.7057 0 11.6099 0 11.5141 0.00239449C8.36495 0.0766238 5.43368 1.37444 3.25918 3.654C1.08467 5.93355 -0.0720277 8.92188 0.00221195 12.073C0.153086 18.4783 5.41452 23.5858 11.7896 23.5858C11.8829 23.5858 11.9787 23.5858 12.0721 23.5834C18.5741 23.4301 23.7373 18.0162 23.5817 11.5151C23.5074 8.36636 22.2094 5.4355 19.9296 3.2613C17.7215 1.15175 14.8453 0 11.8015 0ZM11.7896 20.1928C9.62223 20.1928 7.57226 19.3738 5.99646 17.8725C4.37277 16.3233 3.44837 14.2353 3.39568 11.9916C3.28552 7.36067 6.96397 3.50554 11.5956 3.39539C16.2224 3.28045 20.0828 6.96318 20.193 11.5941C20.2457 13.8378 19.4219 15.9665 17.8748 17.5899C16.3277 19.2134 14.2371 20.1377 11.9931 20.1904C11.9237 20.1904 11.8566 20.1904 11.7896 20.1904V20.1928Z" fill="#110101"/>
<path d="M25.9503 14.173H35.6183V11.8504H29.6623L32.8594 8.80698C34.452 7.28887 35.2279 5.86175 35.2279 4.43942C35.2279 3.14879 34.7681 2.11437 33.8581 1.3649C32.9456 0.591474 31.8273 0.201172 30.5364 0.201172C28.5104 0.201172 26.7885 1.21644 25.9001 2.9261L28.041 4.12096C28.5966 3.07217 29.4492 2.54299 30.5772 2.54299C31.8081 2.54299 32.6654 3.3643 32.6654 4.53999C32.6654 5.32539 32.0811 6.30952 30.9316 7.46846L25.948 12.3508V14.1706L25.9503 14.173Z" fill="#110101"/>
<path d="M87.2076 23.5354H90.5125V13.299C90.5125 9.16127 88.0243 6.48901 84.1758 6.48901C81.5918 6.48901 79.3574 7.45878 78.3492 9.01999L78.0187 9.53002V6.97749H74.7138V23.5354H78.0187V14.6207C78.0187 12.0993 79.628 9.55396 83.2274 9.55396C85.7204 9.55396 87.2076 11.0912 87.2076 13.6701V23.5354Z" fill="#110101"/>
<path d="M106.076 23.5354H109.381V13.299C109.381 9.16127 106.893 6.48901 103.045 6.48901C100.461 6.48901 98.2262 7.45878 97.218 9.01999L96.8875 9.53002V6.97749H93.5827V23.5354H96.8875V14.6207C96.8875 12.0993 98.4968 9.55396 102.096 9.55396C104.589 9.55396 106.076 11.0912 106.076 13.6701V23.5354Z" fill="#110101"/>
<path d="M119.969 6.51538C115.452 6.51538 111.776 10.4376 111.776 15.2577C111.776 20.0778 115.452 24 119.969 24C122.663 24 125.249 23.0948 126.928 21.5696L125.312 19.4648C124.426 20.152 122.725 21.1769 120.445 21.1769C117.466 21.1769 115.376 18.6052 115.146 16.2227L115.127 16.0263H127.611C127.951 13.5073 127.22 10.9212 125.642 9.08467C124.636 7.91376 122.835 6.51778 119.974 6.51778L119.969 6.51538ZM124.481 13.4762H115.297L115.325 13.2702C115.617 11.2684 117.251 9.24271 119.811 9.24271C122.371 9.24271 124.162 11.29 124.452 13.2702L124.481 13.4762Z" fill="#110101"/>
<path d="M143.211 3.95093V19.0698C143.211 20.7315 143.639 21.9407 144.482 22.6591C145.297 23.3511 146.125 23.7534 147.957 23.7534C148.383 23.7534 148.58 23.7366 148.918 23.7055C149.2 23.6792 149.696 23.6217 150 23.5834V20.9877C149.904 20.9973 149.794 21.0117 149.689 21.0213C149.562 21.0356 149.444 21.0476 149.382 21.0548C149.217 21.0715 149.023 21.0787 148.81 21.0787C148.031 21.0787 147.426 20.9087 147.014 20.5735C146.59 20.2287 146.377 19.6157 146.377 18.7537V10.1407H150.002V7.46844H146.377V3.95093H143.213H143.211Z" fill="#110101"/>
<path d="M138.126 6.70459C138.059 6.70459 137.99 6.70459 137.923 6.70459C133.224 6.81713 129.491 10.7297 129.603 15.4277C129.656 17.7049 130.595 19.824 132.242 21.3948C133.89 22.9656 136.045 23.7989 138.328 23.7486C139.111 23.7294 139.884 23.6049 140.631 23.375V20.0898C139.896 20.4705 139.08 20.6788 138.256 20.7004C136.79 20.7339 135.406 20.1976 134.347 19.1895C133.289 18.1814 132.688 16.8189 132.652 15.3583C132.618 13.8976 133.155 12.5088 134.163 11.4505C135.171 10.3921 136.534 9.79109 137.995 9.75517C138.914 9.73362 139.817 9.94194 140.631 10.3634V7.08053C139.82 6.8315 138.979 6.70459 138.126 6.70459Z" fill="#110101"/>
<path d="M63.9084 6.48433C63.8389 6.48433 63.7695 6.48433 63.7 6.48672C61.4225 6.5394 59.3055 7.47804 57.7321 9.12545C56.1611 10.7729 55.3253 12.9351 55.378 15.2099C55.4882 19.8408 59.2911 23.5307 63.8988 23.5307C63.9658 23.5307 64.0353 23.5307 64.1047 23.5283C68.8034 23.4158 72.5369 19.5032 72.4244 14.8052C72.3693 12.528 71.4329 10.4113 69.7853 8.83811C68.1879 7.31522 66.1068 6.48193 63.9084 6.48193V6.48433ZM63.8988 20.4825C62.4858 20.4825 61.1495 19.9486 60.1245 18.9692C59.066 17.9611 58.4649 16.5987 58.429 15.138C58.3572 12.121 60.7544 9.60675 63.7719 9.53491C66.7869 9.47265 69.3039 11.86 69.3758 14.877C69.4093 16.3377 68.8728 17.7265 67.8646 18.7848C66.8564 19.8432 65.4937 20.4442 64.0329 20.4801C63.9874 20.4801 63.9443 20.4801 63.8988 20.4801V20.4825Z" fill="#110101"/>
<path d="M50.5811 0C50.4877 0 50.392 0 50.2986 0.00239449C47.1494 0.0766238 44.2181 1.37444 42.0436 3.654C39.8691 5.93355 38.7124 8.92188 38.789 12.073C38.9399 18.4783 44.2013 23.5858 50.5764 23.5858C50.6698 23.5858 50.7655 23.5858 50.8589 23.5834C51.9055 23.5594 52.9496 23.3918 53.965 23.0853V19.666C52.9592 20.0994 51.8887 20.334 50.7823 20.3604C46.0621 20.4801 42.125 16.7207 42.0125 11.9988C41.8999 7.27686 45.6526 3.34271 50.3752 3.23017C51.6205 3.20144 52.8275 3.4337 53.965 3.92697V0.49566C52.8682 0.16522 51.7307 0 50.5811 0Z" fill="#110101"/>
</g>
<defs>
<clipPath id="clip0_140_3523">
<rect width="150" height="24" fill="white"/>
</clipPath>
</defs>
</svg>
