<svg width="540" height="87" viewBox="0 0 540 87" fill="none" xmlns="http://www.w3.org/2000/svg">
<g clip-path="url(#clip0_227_533)">
<path d="M42.4855 0C42.1406 0 41.7958 0 41.4509 0.00862017C30.1138 0.275846 19.5612 4.94798 11.733 13.1544C3.90482 21.3608 -0.259303 32.1188 0.00795995 43.4629C0.551107 66.5219 19.4923 84.9087 42.4424 84.9087C42.7786 84.9087 43.1235 84.9087 43.4597 84.9001C66.8667 84.3484 85.4544 64.8582 84.894 41.4544C84.6268 30.1189 79.954 19.5678 71.7464 11.7407C63.7975 4.1463 53.4433 0 42.4855 0ZM42.4424 72.6939C34.64 72.6939 27.2601 69.7458 21.5873 64.341C15.742 58.7637 12.4141 51.2469 12.2245 43.1698C11.8279 26.4984 25.0703 12.6199 41.744 12.2234C58.4005 11.8096 72.2982 25.0675 72.6948 41.7389C72.8845 49.816 69.9187 57.4793 64.3493 63.3238C58.7799 69.1683 51.2534 72.4957 43.1752 72.6853C42.9252 72.6853 42.6838 72.6853 42.4424 72.6853V72.6939Z" fill="#110101"/>
<path d="M93.4213 51.0228H128.226V42.6613H106.784L118.294 31.705C124.027 26.2398 126.821 21.1022 126.821 15.9818C126.821 11.3356 125.165 7.61164 121.889 4.91353C118.604 2.12921 114.578 0.724121 109.931 0.724121C102.638 0.724121 96.4388 4.37908 93.2402 10.5339L100.948 14.8353C102.948 11.0597 106.017 9.15465 110.078 9.15465C114.509 9.15465 117.596 12.1114 117.596 16.3439C117.596 19.1713 115.492 22.7142 111.354 26.8863L93.4127 44.4629V51.0142L93.4213 51.0228Z" fill="#110101"/>
<path d="M313.947 84.7277H325.845V47.8764C325.845 32.9808 316.887 23.3607 303.033 23.3607C293.73 23.3607 285.687 26.8518 282.057 32.4722L280.867 34.3083V25.1192H268.97V84.7277H280.867V52.6348C280.867 43.5577 286.661 34.3945 299.619 34.3945C308.594 34.3945 313.947 39.9286 313.947 49.2126V84.7277Z" fill="#110101"/>
<path d="M381.875 84.7277H393.773V47.8764C393.773 32.9808 384.815 23.3607 370.961 23.3607C361.658 23.3607 353.614 26.8518 349.985 32.4722L348.795 34.3083V25.1192H336.898V84.7277H348.795V52.6348C348.795 43.5577 354.589 34.3945 367.547 34.3945C376.521 34.3945 381.875 39.9286 381.875 49.2126V84.7277Z" fill="#110101"/>
<path d="M431.888 23.4555C415.628 23.4555 402.394 37.5754 402.394 54.9278C402.394 72.2802 415.628 86.4 431.888 86.4C441.587 86.4 450.898 83.1416 456.942 77.6505L451.122 70.0734C447.932 72.5474 441.811 76.2368 433.604 76.2368C422.879 76.2368 415.352 66.9788 414.524 58.4017L414.455 57.6948H459.399C460.623 48.6264 457.993 39.3166 452.312 32.705C448.691 28.4897 442.208 23.4641 431.905 23.4641L431.888 23.4555ZM448.131 48.5143H415.068L415.171 47.773C416.223 40.5665 422.103 33.2739 431.319 33.2739C440.535 33.2739 446.984 40.6441 448.027 47.773L448.131 48.5143Z" fill="#110101"/>
<path d="M515.558 14.2233V68.651C515.558 74.6334 517.102 78.9866 520.136 81.5727C523.068 84.0639 526.051 85.5121 532.646 85.5121C534.181 85.5121 534.887 85.4518 536.103 85.3397C537.12 85.2449 538.905 85.038 540 84.9001V75.5558C539.655 75.5903 539.259 75.642 538.879 75.6765C538.422 75.7282 538 75.7713 537.776 75.7972C537.181 75.8575 536.482 75.8834 535.715 75.8834C532.913 75.8834 530.732 75.2713 529.249 74.0645C527.723 72.8232 526.956 70.6164 526.956 67.5132V36.5064H540.009V26.8863H526.956V14.2233H515.567H515.558Z" fill="#110101"/>
<path d="M497.255 24.1365C497.014 24.1365 496.764 24.1365 496.522 24.1365C479.607 24.5416 466.167 38.627 466.572 55.5398C466.761 63.7376 470.141 71.3664 476.073 77.0212C482.004 82.6761 489.763 85.6759 497.979 85.4949C500.799 85.4259 503.583 84.9777 506.273 84.1501V72.3232C503.626 73.6939 500.687 74.4438 497.721 74.5214C492.445 74.6421 487.461 72.7112 483.651 69.0821C479.84 65.453 477.676 60.5481 477.547 55.2898C477.426 50.0315 479.357 45.0318 482.987 41.2217C486.616 37.4115 491.522 35.2479 496.781 35.1186C500.092 35.041 503.342 35.7909 506.273 37.3081V25.4898C503.351 24.5933 500.325 24.1365 497.255 24.1365Z" fill="#110101"/>
<path d="M230.07 23.3435C229.82 23.3435 229.57 23.3435 229.32 23.3521C221.121 23.5417 213.5 26.9208 207.836 32.8515C202.18 38.7822 199.171 46.5662 199.361 54.7554C199.757 71.4268 213.448 84.7105 230.036 84.7105C230.277 84.7105 230.527 84.7105 230.777 84.7019C247.692 84.2967 261.133 70.2113 260.728 53.2986C260.529 45.1008 257.158 37.4805 251.227 31.8171C245.476 26.3347 237.984 23.3348 230.07 23.3348V23.3435ZM230.036 73.737C224.949 73.737 220.138 71.8147 216.448 68.289C212.638 64.66 210.474 59.7551 210.344 54.4968C210.086 43.6353 218.716 34.5842 229.579 34.3256C240.433 34.1014 249.494 42.6957 249.753 53.5572C249.873 58.8155 247.942 63.8152 244.313 67.6253C240.683 71.4354 235.777 73.5991 230.518 73.7284C230.355 73.7284 230.199 73.7284 230.036 73.7284V73.737Z" fill="#110101"/>
<path d="M182.092 0C181.756 0 181.411 0 181.075 0.00862017C169.738 0.275846 159.185 4.94798 151.357 13.1544C143.529 21.3608 139.365 32.1188 139.64 43.4629C140.184 66.5219 159.125 84.9087 182.075 84.9087C182.411 84.9087 182.756 84.9087 183.092 84.9001C186.86 84.8139 190.619 84.2105 194.274 83.1071V70.7975C190.653 72.3577 186.799 73.2025 182.816 73.2973C165.824 73.7283 151.65 60.1947 151.245 43.1957C150.84 26.1967 164.349 12.0338 181.351 11.6286C185.834 11.5252 190.179 12.3613 194.274 14.1371V1.78438C190.326 0.594792 186.23 0 182.092 0Z" fill="#110101"/>
</g>
<defs>
<clipPath id="clip0_227_533">
<rect width="540" height="86.4" fill="white"/>
</clipPath>
</defs>
</svg>
