<svg width="60" height="60" viewBox="0 0 60 60" fill="none" xmlns="http://www.w3.org/2000/svg">
<path d="M21.078 49.5C39.1909 49.5 49.102 34.4911 49.102 21.4975C49.102 21.0753 49.102 20.6531 49.0828 20.2308C51.0036 18.8489 52.6747 17.1024 54 15.1255C52.2329 15.9124 50.3313 16.4306 48.3337 16.6801C50.3697 15.471 51.9256 13.5325 52.6747 11.2293C50.7731 12.3617 48.6603 13.1678 46.413 13.6093C44.6074 11.69 42.0528 10.5 39.2293 10.5C33.7935 10.5 29.3758 14.9144 29.3758 20.346C29.3758 21.1137 29.4718 21.8622 29.6255 22.5915C21.443 22.1885 14.1825 18.2539 9.32293 12.3041C8.47779 13.7628 7.9976 15.4518 7.9976 17.2559C7.9976 20.6722 9.7455 23.6855 12.377 25.4513C10.7635 25.3937 9.2461 24.9523 7.92077 24.2229C7.92077 24.2613 7.92077 24.2997 7.92077 24.3573C7.92077 29.1171 11.3205 33.1092 15.8151 34.0113C14.9892 34.2416 14.1248 34.3568 13.2221 34.3568C12.5882 34.3568 11.9736 34.2992 11.3782 34.1841C12.6267 38.0994 16.2761 40.94 20.5786 41.0167C17.1981 43.6654 12.9532 45.2392 8.34334 45.2392C7.55582 45.2392 6.76831 45.2008 6 45.1048C10.3409 47.8686 15.527 49.5 21.078 49.5Z" fill="#151313"/>
</svg>
